/* XPM */
static char *exit1714485620[] = {
/* columns rows colors chars-per-pixel */
"60 70 183 2 ",
"   c #0B0603",
".  c #0E0A05",
"X  c #0F0C09",
"o  c #130601",
"O  c #140C06",
"+  c #1A0C04",
"@  c #140D09",
"#  c #190F09",
"$  c #15110D",
"%  c #1A120D",
"&  c #161412",
"*  c #1A1512",
"=  c #1C1A16",
"-  c #1D1C1A",
";  c #220D04",
":  c #2B0F03",
">  c #220F08",
",  c #241006",
"<  c #2A1206",
"1  c #24130B",
"2  c #2C150B",
"3  c #2D190E",
"4  c #31170B",
"5  c #341A0E",
"6  c #3C1D0E",
"7  c #221711",
"8  c #211A16",
"9  c #2D1B12",
"0  c #221E1B",
"q  c #351D12",
"w  c #3A1E12",
"e  c #24211E",
"r  c #2B231C",
"t  c #352115",
"y  c #3C2114",
"u  c #342219",
"i  c #3B2419",
"p  c #36281F",
"a  c #252422",
"s  c #2A2623",
"d  c #2B2926",
"f  c #292728",
"g  c #2D2C2A",
"h  c #362720",
"j  c #362922",
"k  c #3C2B23",
"l  c #312D2B",
"z  c #2F302B",
"x  c #3E3027",
"c  c #33322E",
"v  c #39312C",
"b  c #363432",
"n  c #393633",
"m  c #3B3936",
"M  c #3D3C39",
"N  c #421E0D",
"B  c #401F10",
"V  c #44210F",
"C  c #49220E",
"Z  c #442313",
"A  c #4A2614",
"S  c #4E2916",
"D  c #432619",
"F  c #492718",
"G  c #45281D",
"H  c #4D2A1A",
"J  c #512713",
"K  c #512916",
"L  c #512C1A",
"P  c #4E2E21",
"I  c #453327",
"U  c #43342C",
"Y  c #42382F",
"T  c #49382E",
"R  c #453A33",
"E  c #4B3C34",
"W  c #403F3C",
"Q  c #4D4037",
"!  c #44423E",
"~  c #4D423B",
"^  c #514134",
"/  c #53433B",
"(  c #57493E",
")  c #444341",
"_  c #484540",
"`  c #4B4A45",
"'  c #4C4C48",
"]  c #534741",
"[  c #574D44",
"{  c #5B4B42",
"}  c #504E49",
"|  c #5E5047",
" . c #54524B",
".. c #5F534A",
"X. c #565550",
"o. c #5A5651",
"O. c #5B5A55",
"+. c #5F5E59",
"@. c #62544C",
"#. c #65584F",
"$. c #615650",
"%. c #685750",
"&. c #655B55",
"*. c #6B5B53",
"=. c #625F58",
"-. c #6D5F59",
";. c #6D6057",
":. c #63625C",
">. c #6C625B",
",. c #73665E",
"<. c #72685F",
"1. c #666560",
"2. c #6C6A64",
"3. c #6E6D68",
"4. c #736C65",
"5. c #796B64",
"6. c #716F69",
"7. c #7C6F69",
"8. c #74736B",
"9. c #7D726C",
"0. c #767570",
"q. c #787772",
"w. c #7D7A74",
"e. c #7E7D7B",
"r. c #81786F",
"t. c #827771",
"y. c #827C75",
"u. c #897C74",
"i. c #827F79",
"p. c #887F78",
"a. c #838077",
"s. c #85837C",
"d. c #89847E",
"f. c #8C887F",
"g. c #91847E",
"h. c #92887F",
"j. c #8A8680",
"k. c #8D8A83",
"l. c #908782",
"z. c #918D85",
"x. c #988D85",
"c. c #928E88",
"v. c #939087",
"b. c #95938A",
"n. c #9A948C",
"m. c #9B988F",
"M. c #9C9793",
"N. c #9D9B92",
"B. c #A0968F",
"V. c #A1988F",
"C. c #A19790",
"Z. c #A29D95",
"A. c #A39F98",
"S. c #A99F99",
"D. c #A3A196",
"F. c #A9A097",
"G. c #A6A39A",
"H. c #AAA59C",
"J. c #ABA89F",
"K. c #A7A6A1",
"L. c #ABA6A1",
"P. c #ACAAA2",
"I. c #AEADA9",
"U. c #B2ABA4",
"Y. c #B2AEA9",
"T. c #B6B1AA",
"R. c #BAB2AB",
"E. c #BBB7B1",
"W. c #BEBAB3",
"Q. c #C1B6B0",
"!. c #C1BBB4",
"~. c #C9BFB6",
"^. c #C4BFB9",
"/. c #C4C0B7",
"(. c #CBC3BC",
"). c #C7C6C2",
"_. c #D0C9C1",
"`. c #D4CDC9",
"'. c #DBD8CF",
"]. c #E3DBD8",
"[. c #EFE8E2",
"{. c #F5EEE8",
"}. c #FFF7F5",
/* pixels */
"z c c 2.D.G.D.P.1.c ! c a.D.G.G.H.G.N.O.= ! k.k.N.W.(.U.l.5.*.,.5.S.Y.Y.k.j.c.b.m.+.a +.N.G.G.G.J.D.X.b ` O. .m z z a z ",
") M :.G.H.H.G.J.N.W z 2.N.G.G.G.G.G.H.A.O.e 9.W.R.9.Y 8 1 7 > > 9 9 E l._.S.s.j.k.o.z O.b.N.G.G.G.K.m.M b O.N.b.b.v.e. .",
"m 1.J.J.G.G.G.H.G.:.z q.h.D.G.G.G.G.H.H.b.O.n.r.9 + < w w w w w q 9 > + x f.A.w.8.n m ' d.v.D.J.G.G.P.3.d :.D.G.K.K.G.X.",
":.D.G.G.G.H.H.N.m.1.z +.v.b.D.J.H.D.A.A.H.y.x + q y w w 5 w q 5 w q w w 2 + ~ 9.! c ) b w.c.v.N.G.G.J.m.b ` v.v.m.N.3.z ",
"N.J.G.J.G.J.D.n.f.m M W a.v.m.D.D.J.E.!.<.# 2 q 5 w w 5 5 w w B 6 w y 6 w w 1 h s.E.).M } z.b.b.m.N.D.J.X.n f.b.b.s.z ' ",
"N.D.D.D.N.N.b.v.! z m e O.f.f.b.U.J.5.j o 9 w w 5 w w w w 5 5 5 5 6 t 5 q q q , 1 $.Y.(.d.w.s.c.b.b.v.m.q.d 2.b.f.b ) b.",
"v.v.b.b.v.k.k. .e w.D. .e <.b.v.@.9 , 5 1 q w w 6 w w q 5 w w w 5 6 6 6 w w q , q 4 ; { !.`.n.w.f.b.m.v.a.c ! w.m z f.b.",
"d.f.f.f.s.k.:.- 3.P.J.J.! o.9.p , w y y < < q w w w q q w w q q q q t 5 t w 2 , F L F < > t.].L.w.s.s.k.:.s b b z q.s.s.",
"d.d.s.s.k.2.e  .J.G.D.G./.:., 5 y Z A H w 2 1 3 1 % 1 # # + + # # % % 1 1 2 , i L A Z S D ; / `.D.a.f.O.e O.3.c ` s.f.f.",
"+.<.4.3.O.g m M.J.D.D./.9., y y A Z Z P D 7 o o . e r . O # O @ . r @ O O   ; i G L A K L H ; U R.8.W z w.P.Y.:.d M `  .",
"s s s z c n 1.K.G.D.W.a.+ y V S S A H q ; o + # . z d . @ # @ @ @ m = O + O O O 1 i L K K S H 4 Q h.m s.G.m.b. .b z e e ",
"s.a.O.m ` m s.G.D.T.N.3 y y Z C L G 2 1 O @ + @ O c z X O O @ O @ M = O + O O $ 0 1 w S S A K P 2 | m.k.v.8.m c  .:.8.s.",
"P.P.G.} n _ k.N.H.E.I 2 A V 6 A D ; o v * O + $ . c g X $ # O @ X M - . @ O @ @ R = o 9 F S N J S 2 d.a.! d ! d.m.m.G.P.",
"G.D.J.f.c ! j.k.E.9., D S A Z t + o @ n * O @ + . c c . @ O # O X M = O $ + O @ n - O o 2 D F S S Z U f.! z 2.c.v.v.b.J.",
"G.G.G.J.X.d q.n.H.u t y S L u O O @ O b = O @ $ X l g X O # # O X M = O + @ + $ m - X # o 1 D L S H + y.E.m M a.f.v.v.m.",
"m.N.G.J.c.r =.Z.U , , 5 H 6 % e O @ X c = O + @ . c c . @ O O O X M = O $ O $ @ n - o @ & 8 < G y < 2 2 f.k.z ! 3.f.k.v.",
"k.v.m.N.J. .( ( 4 G D > 2 # g a   $ @ b - . @ @ X z z X X + # # . c = O @ @ @ @ b - O + @ l + 1 < 5 y y , <.O.z s ! w.k.",
"a.k.v.v.b.v.Q 1 B H P q + X b e . @ X b 0 O @ #   z z X @ @ O @ X l = . @ O @ $ m - . @ & l @   9 i F y t 2 &.s.d.n z O.",
"W :.s.k.v.V.p w L H w 9 o @ n a . @ X n 0 . # #   g z X @ O + @ . c - . # # O X b - @ @ @ g $ O , i F Z i 4 E Q.J.m.b b ",
"z a m O.v.@.< Z P B w o   * M f . . X b =   O O X a g X . . O . X n 0   . O . & m -   X & g X O o 3 D Z C y 1 h.T.b.M M ",
"O.' c r ..t 5 H F w 7 8 - a ) b & & e M a & a 0 = d g & e e e - - M z & - 0 - g ) a - - z ) - & = # D F Z Z 2 Q W.3.d ` ",
"P.J.M.Z.[ < Z S Z w + 7 & - M g & & & b e @ = & $ e g & $ & & & & b z & a - & d W - - - a ) a - s % 2 D S F w 3 N._ ` m.",
"H.G.J.R.p 5 6 A Z 2 O O @ . z a X X . s & . O X . - b . X O O O . a e   o X   = b X . . X n & . o O + Z H H Z < >.:.s.N.",
"H.D.T.f.< D G D w ; o $ O . z e X $ X d * + @ @ . e n X O # # # . 0 = X # O O = g X @ @ X z $ @ @ + + 5 y Z y 3 R I.v.m.",
"G.A.E.&.< i D y t + + O @ . c e O $ X s & O O $ . 0 b @ # # O $ . 0 8 O O # O = b . @ @ @ z @ @ @ + O 3 y t y t r G.m.v.",
"D.J.Y.j , < < < , O + + O . c - . + X a = O @ + . 0 b X O # O O O e - o @ @ O = n X O @ . z @ @ O O O + , < < 3 o y.H.v.",
"M.L.S.q t Z 6 6 2 o + O @ . b e O @ X s * O + + . 0 b X O O # $   e 8 O @ + O * c X @ + @ d @ O + O O + t 5 t 6 , 5.U.f.",
"b.H.H.9 Z L H y 2 O @ O @ . b e . $ X a * O $ $ . 0 b X O # O $ O e 8 X @ + O $ r O @ @ . z @ @ # # @ + y 6 6 y < ;.U.z.",
"z.A.Z.2 Z S V y 1 O + @ O . b e O @ . s * O # @ X 0 b X O + # O O e 8 . @ O O $ d . @ @ O l @ O O O O + y 6 S D < #.H.z.",
"v.D.n.1 F Z 6 y , O @ @ O . b e O @ X d = O # @ . 0 g X O @ O O   e e . % + O $ s X @ O O z $ @ O # O + 5 A L D 2 @.Z.k.",
"z.H.B.< F S Z w 1 O + O # . z - . @ . d * . @ @ . 0 d X @ O # # . e e . $ + O $ s @ O @ X c % O + O O + w Z S A 2 @.n.p.",
"a.J.Z., F L Z w 1 O + O # . r * O @ . r * O # @ . 0 d X O O O # . r 8 . @ @ @ % s @ @ @ . c @ O @ O # + 5 Z S A < | n.w.",
"p.A.H., A S S 5 , O # # O . f - O @ X s * O @ # . - z X # O O @ . r 0 . + + X $ d O @ @ X l @ @ @ O O + q Z L A < %.H.e.",
">.z.U.1 D V F y 2 O O O O X f & O @ . s * O + @ O - d X # O + $ . a 8 . $ + @ % f X @ @ O c @ O + @ O + w Z L S > -.i.' ",
"= m H.9 y V S y 2 O O # @ . f & O + . s * O # @ . - d X O # @ + O s 8 O + O O $ s @ + @ X z $ O + @ O + w Z L S ; t.C.0 ",
"w.z./.9 y A S 6 < O # O O . a = O @ . s * O @ # O - d . O O + $   s 0 . $ O @ & s O @ @ X c $ + @ @ + + w A L A ; p.}.e.",
"T.h./ 4 6 S L V q , O O @ X s & . @ . s = O @ @ . e s X O O O + o s - X + @ O % f X o O @ l # O + + + 2 w K V Z 5 k *.L.",
"T.~ , y 6 H K S 6 y 3 O @ X d = X @ . d & X @ @ . - d X O O O @ . a -   @ @ X $ f X @ @ . g @ O O + y w Z L A K B w > C.",
"S.E 5 y V H C S S w 9 O X X - X X X X = & X & X X & - X @ $ X $ X - & $ $ $ $ & - & $ & $ = $ * @ 1 y 6 S K K K L w q l.",
"B.Y 5 6 C S V S S 6 5 8 n b g b b b c z z z g z z d d z z d g z z f f a a a s a 0 a g g f - s g r 1 y F S V N K B w 9 u.",
"] j q 6 N K N A H B q + * & f & $ $ X a & @ $ $ X = - X X @ @ @ $ f $ . O O   X a X O X X a X O o 9 B H J N J L L B 3 %.",
"..j q 6 C L S S F w q + o & W * X $   b - . @ @   s z . @ O # O X b = X @ @ @ = M $ @ @ @ l @ + o 7 w B L B J J H B 9 -.",
"H.U 5 B N S L N B w q + @ $ ) 0 O $ O c 0 . $ @ X d g X $ + # @ @ M - . + $ X = M $ @ # & l O @ + 2 w B L K L J B B 9 u.",
"J.Y 5 6 6 Z A A D w q o o X g $   .   d *   . O   - a   . . . . X s @     .   & f . o     - . o o 7 w B J J J B B B 9 l.",
"Y.E q B 6 6 N B w w q > s a a a a a a a a a a a e d a - d d s s f s s f f f d f f z g g d f f s 0 1 w w w B B w w w 9 x.",
"Y.$.2 B w w w w w w 0 7 f a f a a a a a s a a a s e a a e a d s f f f f d f d f f f f f a f a a 0 7 w w B w w w w q > n.",
"L.n.E > 1 < 2 4 < 2 # o   X s X   .   a &   . . . X e .   . . .   f &   X .   X f X   . X - X .   + 2 2 < 2 2 2 1 u -.I.",
"A.!.Q.7 w w w 5 q q > O @ $ n 0 O $ O m 0 O @ @ O - M X @ O # @ X n a X $ $ O * l & O @ X d * O $ + 9 q 5 q 5 w > ,.{.K.",
"A.Q.F.2 i H L Z F w > O @ @ m - O @ . c r . + @ O * m O O # O # X n 0 @ o @ @ & g $ @ @   s * o # + q B Z F F D , #.(.D.",
"A./.Z., Z F S S S w > O @ @ m e O @ . n e . $ + O = m O # O O O @ b 0 . # @ X * g & @ @ @ f $ @ @ + w B Z S S F 2 | R.n.",
"b.W.n., y N S A B i 1 o $ X m a O O O n r   @ @ O * m @ O O + + X n 0 o @ # o % g & O @ . a % X @ o w F A C S A 2 ( F.v.",
"z.J.x.2 y 6 B 6 w w > O @ @ n 0 O @ . c e . @ + O * b X @ @ + @ X l 8 . # @ X * g @ O @ X f % @ @ + w F A Z S Z 2 ( F.v.",
"z.D.n.1 Z w 6 B w w 1 o @ $ n e O # . c r . # # O = M X @ @ @ @ X n 0 . # @ O % g & @ @ X b = . + + 5 S J K C H 4 { J.c.",
"k.Q.(.1 i w y y w w 7 o @ X n e . # . z e . O O O @ l @ @ O + O @ b 0 X @ + X * g & O @ @ b * . # o q Z H A K G < ,.(.s.",
"k.F.7.; 2 2 4 2 2 4 > o X $ n a . # O z e . # O O & l X O + O @ X b 0 o @ @ @ * g $ O @ @ g $ O O o 2 4 4 4 4 4 ; T n.z.",
"f.~ ; q 5 4 2 4 4 9 9 9 @ @ n - O O . z e . O # O = M O + + + O . n 0 o # O X & g $ @ @ @ g * O 1 9 9 4 5 2 5 2 q 3 1 y.",
"a.T y Z 6 N B B w w w i 1 O n 0 O @ . d r . @ # @ & n X # + o @ X b 0 o # # @ * g & O @ X b @ O w w w w w w y w w y 9 ;.",
"v t i K A Z B N B B F y 7   n e O @ . l r . O O X * n @ @ o # @ . v 0 X + @ @ $ f & O @ @ b $ O w 6 w w w w 6 6 6 w 9 / ",
"9.U 6 L S J J K H L F y 7 X m e O @ . c s . @ O @ % m @ # O @ @ X b 0   @ @ . & b $ @ @ X b @ # i w w 6 B 6 N A A F 2 %.",
"V.^ C L C J J J J J A y 9   a $   X   - -   X O X X 0 X X O @ @ X 0 * X @ @ X $ - @ X @ X = @ > q w w w 6 A L L L F 2 %.",
"x.I 6 L J J J J C Z F w 9 7 a a d s a a a a f f f f f f f g g g g f g l z f f g f d g l l f e 7 i w 5 N S S N N F F 2 %.",
"[ i Z L J J J A J L L B 9 + 0 & $ & & - = $ & & @ @ - & @ $ $ @ $ - & @ @ X X & e @ X $ @ 0 @ 7 i w 6 F L C A J S Z 3 ] ",
";.t Z L J K J K J A F B 9 o l & o @   e e . @ @ @ X b & . O @ X X f & . @ @ X & W = X @ . f @ 1 w 6 B L Z J K Z N F 2 ..",
"H.T 5 S L K L K A L L w 9 @ l & O # X g f . @ O O @ n & @ + @ @ $ g * O + @ . = W = O + X s @ 1 w N Z J J A C Z L F 2 5.",
"F./ q w 6 Z Z Z Z Z N w 9 @ g = O @   l s . @ + @ @ m & O O O $ X g % X @ + O * ! = . O X s @ 7 w w F L H S J L L D 2 7.",
"U...2 y w 6 w 6 w w w t 1 O g & O @   l s . @ @ O @ m & O + @ O O d * O @ @ @ * ! = O $ X s @ # q w w F A Z B B B w + p.",
"J.m.Q , 2 2 2 2 < 2 ; + O @ l = O @ o g s   $ + @ @ n & @ + O @ $ g & O + O O * W * O O   s & o + + < < < : 4 < < 7 9.W.",
"m.'.h.+ t 3 5 5 5 q > o @ @ l = O # o g d   $ + O @ n $ O O O O X z % O $ % O * ) = O @ X s & O @ + q q 5 5 q q 2 U [.I.",
"d.!.r., i 6 y w w D 9 O @ $ g = O @   l d   @ + O @ m * O @ O @ @ d % . @ O @ $ M - O + X a $ O @ + w B w w w w q p L.c.",
"y.B.@.2 y 6 w w 6 G t O + @ g * @ @ o l d   @ + @ @ n % O O # @ . z % @ @ # @ & m = . @ X s & O + # w D H w w w w q l.j."
};
