/* XPM */
static char *player1714485636[] = {
/* columns rows colors chars-per-pixel */
"60 70 236 2 ",
"   c #17150F",
".  c #171612",
"X  c #1D1A15",
"o  c #221C16",
"O  c #211E19",
"+  c #262119",
"@  c #2B241C",
"#  c #352A1C",
"$  c #392B1D",
"%  c #292925",
"&  c #2D2D2B",
"*  c #352D23",
"=  c #2F302C",
"-  c #3B3327",
";  c #31312E",
":  c #352E39",
">  c #353532",
",  c #383535",
"<  c #373834",
"1  c #3A3A36",
"2  c #3C363B",
"3  c #3D3D39",
"4  c #453625",
"5  c #563C28",
"6  c #453B33",
"7  c #41363D",
"8  c #413E3B",
"9  c #553F3A",
"0  c #6B322F",
"q  c #3F403C",
"w  c #5C462D",
"e  c #4B4237",
"r  c #42423D",
"t  c #564A3B",
"y  c #654C2F",
"u  c #664D32",
"i  c #715034",
"p  c #755734",
"a  c #7E6139",
"s  c #3F3B41",
"d  c #443B43",
"f  c #443B46",
"g  c #5A3C44",
"h  c #454541",
"j  c #484642",
"k  c #4B4A45",
"l  c #45424B",
"z  c #4C444D",
"x  c #4E4C49",
"c  c #51484A",
"v  c #514E4A",
"b  c #53524D",
"n  c #5A5249",
"m  c #4D4B55",
"M  c #4D4B56",
"N  c #534D57",
"B  c #565551",
"V  c #595651",
"C  c #5C5A55",
"Z  c #57525D",
"A  c #5E5B5A",
"S  c #6F4C4D",
"D  c #6B5C4A",
"F  c #645A57",
"G  c #615E5A",
"H  c #73624C",
"J  c #65625D",
"K  c #696359",
"L  c #766857",
"P  c #565462",
"I  c #5C5966",
"U  c #5D5C6C",
"Y  c #645F62",
"T  c #605E6D",
"R  c #6A6661",
"E  c #686666",
"W  c #6D6A64",
"Q  c #776961",
"!  c #716D67",
"~  c #726E69",
"^  c #75726C",
"/  c #7C7368",
"(  c #7A756E",
")  c #736F72",
"_  c #7A7671",
"`  c #7D7A73",
"'  c #797978",
"]  c #B42319",
"[  c #BD251B",
"{  c #842B24",
"}  c #8A3433",
"|  c #963A33",
" . c #AC2C23",
".. c #B82E25",
"X. c #A8372B",
"o. c #B93429",
"O. c #AF3D32",
"+. c #C5251B",
"@. c #CC261C",
"#. c #C4291E",
"$. c #D4251A",
"%. c #DA251B",
"&. c #C52D22",
"*. c #C33527",
"=. c #C03E31",
"-. c #974035",
";. c #B94335",
":. c #86633A",
">. c #916C3E",
",. c #94703F",
"<. c #8E554B",
"1. c #AB5747",
"2. c #896945",
"3. c #9A7243",
"4. c #836D55",
"5. c #86715A",
"6. c #957955",
"7. c #A67D48",
"8. c #B07255",
"9. c #877767",
"0. c #997B64",
"q. c #817D76",
"w. c #8C7F70",
"e. c #837E79",
"r. c #957E74",
"t. c #BA7A65",
"y. c #C05B4C",
"u. c #B8884B",
"i. c #AA865B",
"p. c #B88B55",
"a. c #BE945D",
"s. c #99846C",
"d. c #86817B",
"f. c #8A8479",
"g. c #89857E",
"h. c #958979",
"j. c #9F907F",
"k. c #A88A6A",
"l. c #B78568",
"z. c #BB9365",
"x. c #A78C74",
"c. c #A9937B",
"v. c #AC957B",
"b. c #B7957A",
"n. c #CB974F",
"m. c #C89756",
"M. c #D29B54",
"N. c #D59C57",
"B. c #DBA255",
"V. c #D9A158",
"C. c #E2A555",
"Z. c #E5A957",
"A. c #EAAC55",
"S. c #F0B055",
"D. c #F2B155",
"F. c #C59869",
"G. c #CD8E75",
"H. c #C9997D",
"J. c #C0A47D",
"K. c #858483",
"L. c #8B8680",
"P. c #8D8A82",
"I. c #918D85",
"U. c #958F87",
"Y. c #939087",
"T. c #9C9184",
"R. c #959289",
"E. c #99968D",
"W. c #9B988F",
"Q. c #8C9A97",
"!. c #959693",
"~. c #9D9A91",
"^. c #A79886",
"/. c #AB9C8A",
"(. c #B69D84",
"). c #A19E95",
"_. c #A79F94",
"`. c #9EA09B",
"'. c #BAA389",
"]. c #A4A097",
"[. c #ADA496",
"{. c #A7A49B",
"}. c #A8A59C",
"|. c #B5A798",
" X c #9AACA9",
".X c #A8AAA6",
"XX c #B7B4AA",
"oX c #B2B5B1",
"OX c #C19D85",
"+X c #C3A386",
"@X c #C9A789",
"#X c #C5AB8C",
"$X c #D8A888",
"%X c #C6AC92",
"&X c #D4AF90",
"*X c #CCB193",
"=X c #CBB499",
"-X c #D2B695",
";X c #D5B798",
":X c #D4BA9B",
">X c #DBBD9C",
",X c #E5B38F",
"<X c #C9BBAA",
"1X c #C7BEB2",
"2X c #B4C2BF",
"3X c #DDC09C",
"4X c #E2C29E",
"5X c #DEC2A1",
"6X c #D7C3AB",
"7X c #CCC3B6",
"8X c #D3C9BA",
"9X c #E4C6A3",
"0X c #E9C7A3",
"qX c #ECCBA6",
"wX c #EFCDA9",
"eX c #F1CDA7",
"rX c #F1CFA9",
"tX c #F6D3AC",
"yX c #F8D5AD",
"uX c #F3D7B6",
"iX c #B3C4C2",
"pX c #BED4D4",
"aX c #CACBC8",
"sX c #D2CCC3",
"dX c #D5D2CE",
"fX c #C4DAD8",
"gX c #D8D8D4",
"hX c #F0E5D5",
"jX c #CFE1E1",
"kX c #D8E4E4",
"lX c #E8E9E7",
"zX c #F4F2ED",
"xX c #EBF2F0",
"cX c #F3F3F2",
"vX c #F7F9F7",
"bX c #FCFDFC",
/* pixels */
"; = 3 ! ).{.{.{.W 1 r q ` ].{.{.{.{.W.J % r g.R.R.[.J.m.B.A.Z.B.a.s.t W d.P.R.R.Y.J = C R.{.{.{.}.~.J 3 h 3 3 h 1 > % % ",
"r r W ~.{.{.{.}.R.h < J E.}.{.{.}.{.{.E.C < ( h.v.m.B.D.S.D.A.N.S.A.p.H _ d.g.P.g.b > b P.~.}.{.{.{.Y.r 3 x d.Y.Y.P.` x ",
"q E ~.{.}.{.{.{.~.G 3 ^ Y.].{.{.{.{.{.{.P.k F 6.p.n.A.A.D.D.C.,.M.D.n.N.6.E ^ ( ! q q x g.R.~.{.{.{.].! > G E._.{.{.W.V ",
"W ~.{.{.{.{.}.).R.J < C g.E.].{.{.{.{.].g.b i.n.w a m.B.C.N.m.>.i C.n.n.B.2.< > < q k q _ P.E.~.{.{.}.R.r v P.R.!.R.~ < ",
"W.{.}.{.{.{.].E.d.r 3 r ` Y.R.].{.{.W.R.J t a.B.:.o # 4 i 7.M.p.@ :.m.p.M.m.L v 1 W R.h V g.Y.R.E.~.].].C q e.Y.Y.` 3 b ",
"~.).].].).~.R.g.k 1 3 = V g.Y.R.W.E.R._ n u $ p 2.y   X o o 5 3.$ 4 n.n.3.i.k.R.k J ` = > ^ g.Y.Y.Y.R.E.^ < R I.` r k g.",
"R.R.E.R.Y.Y.d.b > _ Y.V > W P.Y.Y.Y.f.r D i.w X + $ o X o X X o o o ,.,.y m.8.T.k q q r = q ( d.P.Y.R.Y.` < k ~ h 3 q.Y.",
"g.g.g.P.g.d.J = W ].{.W.b 1 ( g.Y.P.V & 6.M.B.w X X o o X X X X X X + + ,.D.B.k.h < b R.` q q ( d.d.P.d.J = < < < ~ d.d.",
"d.d.d.d.e.R ; b ~.{.}.}.Y.r h ` f.J = K m.p.i # X O X X - q X X X X X o 4 :.n.C.2.b I.}.{.g.q q ^ d.q.G 1 C R 3 j ' e.d.",
"G J W R C > r I.}.}.{.{.{.` < x C = n m.>.@ X X X X X O k.s.O - o X X X . X w u.m.h.].{.{.{.g.q 3 V k q ( ).].G ; 3 k b ",
"; > ; > > 1 J ].{.}.{.{.{.).C ; ; e 6.i o X X X X O @ - 3X3X- t - X X X o X X $ 3.a.^.}.}.{.].` 1 > r ` W.W.I.b 1 , = & ",
"d.` A 3 h r d.].{.{.{.}.{.{.g.r q 4.:.p y o o X X @ - D yXtXH t L X X O X X o >.B.V.z.{.{.}.{.].J > C I.g.! r 3 b J ^ q.",
"{.}.W.b 3 k g.W.{.{.{.{.{.}.W.k e m.A.B.4 X X O X e e s.yXyXv.e (.* + % + X X w A.B.M.^.}.}.{.}.f.< k R x ; x q.I.R.).}.",
"{.{.{.d.8 r d.R.].{.{.{.{.{.R.h D a.B.a X X X X X 5.t #XyXyX>Xe *XH * 4 % X X o u.D.S.v.}.{.{.{.d.q < k x < J g.Y.R.W.{.",
"{.{.{.).C > ^ Y.~.{.{.{.{.].P.3 2.B.u.@ X X X X * '.H 3XyXtXwXD #Xc.e e t . X . w D.A.v.`.{.{.~.` < C W.R.h j ( g.Y.Y.W.",
"W.).{.}.g.< C P.R.~.{.{.{.~.d.1 6.B.:.$ X + X X D 3Xs.qXyXyXyXs.#X3XD n L X o X + u.n.a.~.].W.E.( j R.{.].C 3 h W d.I.U.",
"P.Y.W.~.).C r e.I.R.~.].~.R.( < p.Z.u.$ X X @ O c.>Xc.eXtXtXyX+X-XwX0.L s.@ @ X * >.B.z.Y.R.R.E.W C ].{.}.^ < 1 > x ( g.",
"q.g.I.R.E.d.3 W P.R.R.R.R.R.K r m.D.u.O X + e - ;X:Xv.*XwXyXtX4X;X*X'.'.'.6 - . 4 n.B.a.Y.R.Y.R.C J {.{.{.E < ( ` r < V ",
"r J ` g.Y.R.C v d.I.R.R.R.Y.v r m.D.y O X @ H t <XdXgX<X;XyXtXtX=X1XdX<X*Xn e X # u.D.a.Y.Y.Y.P.h ! ].{.~.k V ).}.g.q < ",
"> ; 8 G ` g.d.r ~ d.g.P.I.d.3 x i.M.:.4 X * L K hXbXzXlX6XyXtXqX8XlXzXvX<XL t   :.u.D.z.I.P.K.( < _ ~.~.d.2 q.{.}.R.q q ",
"A b q = < b Q h j q.d.d.d.E & j i.A.n.# X * s.h.bXgXW lXhXtXtXuXzX!.Y.bXgXs.6 . p V.m.k.f.d.( x > ` R.Y.J h W.{.).! < x ",
"].~.E.d.J r & & > b J F v < < < H m.3.X X @ x.6XbXlXoXcXhXtXtXuXbXdXdXbXzX*X* . w M.V.0.J x < = 3 ( I.d.r C R.R.P.h b h.",
"{.{.{.{.{.~._ x < < & ; r j r 1 e M.>.4 $ - c.uXlXbXbXzXuXeXeXtXhXvXbXvXhXb.@ 6 u V.m.k ; < q r q J ` E > ( P.g.W q d.E.",
"{.{.{.{.{.{.{.Y.k 3 h ^ I.R.Y.d.W i.B.u.i.x.c.rX6X8XsX6XtXv.,XyX>X.X1X|.>XOX0.6.u.B.6.k W W r q r < < & % V A B 3 C Y.E.",
"{.{.{.{.}.{.}.~.x < ~ R.E.{.{.{.}.W.F.M.z.$Xb.eX@X*X>XqXwXx.@XeX4X(.(.h.;Xb.H.l.C.m.n W ].{.Y.v 3 q x x 3 ; ; 1 q ` R.R.",
"{.{.{.{.{.{.{.P.1 k g.R.E.{.{.{.{.{.^.z.l.,Xb.>X|.dX8X1X<X1X<X1X7X8XdXaX&Xx.,XF.m.L x E.{.{.{.W 1 ( ~.).E.` k 1 x P.R.R.",
"~.{.{.{.}.{.].E % G f.I.R.{.{.{.{.{.}.^.z.$X@X-X<XlXvXbXvXbXbXvXlXzXgX8X%XH.$XF.L r ` {.{.{.{.G k W.{.{.{.{._ < J Y.R.R.",
"!.].{.{.{.}.R.k ; A f.g.R.).}.{.}.}.{.}.h.6.H.b.&X_.aXaXaXaXaXaX.XaX.X(.OXH.x.h.x b ~.{.{.}.W.r E ].{.{.{.{.q.1 W P.R.R.",
"R.R.~.{.{.].^ ; 1 b d.d.P.~.).{.{.{.{.L.h V ( 4.5.^.7XlXcXcXcXcXlXdX/.x.0.^.W.~ < ` ].}.{.{.d.1 ` {.{.{.{.}.q.1 _ d.I.Y.",
"R.R.R.R.W.Y.k 3 h < ` d.K.Y.R.R.E.W.d.q > q x C 8 6 / |.7XsX8X1X|.h.e.h.Y.).I.j k g.W.{.].W.J 3 g.].{.{.{.{.( 8 q.d.g.Y.",
"R.R.R.R.Y.W 1 ( Y.h G d.d.L.Y.R.Y.~ 3 > x ^ Y.~.L.6 9 | 0.(.(.(.<.0 K P.Y.U.W > x g.R.W.R.P.h x I.W.{.{.{.W.R r e.d.d.d.",
"P.Y.R.R.d.r J ).{._ q ` d.e.g.e.C = h ^ E.{.{.{.T.X.] ..b.(.(.;X&Xo...<.T.e.r 3 r d.Y.P.g.R ; G R.R.W.~.U.L.C 1 ` d.d.d.",
"d.g.I.I.V h R.}.}.~.r G d.q.R 3 > G I.{.{.{.{.|.(.&.[ o.OX;XwX9X+X..+.#.b./.V > ; k C b r > 1 J Y.Y.P.d.^ C < ; r W d.d.",
"W ~ ^ A > _ }.}.}.}.R > v h = h _ R.).}.{.[.:XyXOX&.[ +.G.9XeX0XG.&.+.@.G.yX=Xh.x ; < < 3 3 q V W C x 1 = = < < = ; r b ",
"= = ; = b ~.{.{.}.{.d.1 > ; b q.P.~.{.).[.0XtXtXt.$.+.$.;.wXyXeX1.%.$.@.t.tXyX0Xf.R P.P.d.^ k < ; ; < r B C J J r q < ; ",
"q.! v 1 ~ E.}.}.].E.g.r r 1 ^ d.P.W.).[.wXtXyX9X1.$.@.*.O.G.yX$X&.%.#.@.8.9XyXyX0X[.{.{.{.{.g.1 k ( g.E.W.].].].` < r J ",
"{.}.U.h ~ R.{.).E.R.W 3 r < G d.L.E.E.5XyXuX;Xh.| %.%.8.8.8.5Xt.[ @.$.$.1.^.>XyXyX>X].{.{.{.R.3 K ~.{.{.{.{.{.}.d.< x P.",
").}.{.C G g.E.Y.Y.` r < 3 1 1 ^ d.P.|.yXyX5Xh.9. .%.%.&...t.>XG.@.%.%.%.-.q.s.0XwXc.K ].{.{.W.h ( ~.{.{.{.{.{.}.` ; J W.",
"R.W.W.W k d.Y.Y.d.r < J P._ > h q.T.wXtXtX/.P.<.+.%.%.%.$.t.%Xl.@.%.%.%...Q j L n o + P.}.}.W.k _ E.].{.{.{.}.{.~ < ! R.",
"g.P.g.J 1 ^ f.q.k 3 ` ).{.}.W & C '.yXyX:XP.K.<.@.%.%.@.&.t.>Xt.&.%.%.%.[ S 3 < . X X J }.{.Y.h ` R.W.].}.{.}.].C < K d.",
"r 8 1 > 1 b ~ h 1 d.{.{.{.}.).b r >XyXyX[.P.W 0 %.%.*.8.;.$X0X$X&.+.$.%.@.0 ; r o     r {.).P.h _ Y.Y.W.W.).).Y.x q 3 q ",
"b b b k 1 > > < _ _.{.{.{.{.{.P.9.rXtXwX^.( 6 { %.%.&.8.X.k.v.b.*.$.%.%.%.0 8 V ; t 5.v.`.~.d.3 ^ P.Y.Y.Y.Y.Y.^ < 1 r k ",
").).~.W._ 1 2 C W.{.{.{.{.{.{.{.5XtXyX9XI.h 6  .%.%.%.%.*.@X>Xb...%.%.%.%.0 ~ E.).<X8X7XoX`.~ ; C d.g.h.Y.Y.d.r < ! P.E.",
"{.{.{.}.].J ; C E.{.{.{.{.}.~.=XyXtXyXtXf.> t [ %.%.%.%.=.@X-X&X*.%.%.%.%.X.L.U.].XXXX6X9Xh.< ; > x ^ e.g.d.v & C Y.{.{.",
"{.}.}.{.}.f.; C L.).{.{.{.~.R.5XyXtXyXyXc.3 i $.%.%.*.o.O.(.;Xv.o.$.$.%.%...L.P.#XwXeXtXyX*XV J C 3 > r V k ; 3 ( ~.{.{.",
"{.{.{.{.}.W.j k d.R.W.W.E.R.T.0XyXtXyXrXs.K 1.%.%.%.1.p.| w.s.L X.#.$.%.%...9.h.-XyXtXtXyX4X^.].].Y.^ k ; ; < v L.~.{.{.",
"{.}.}.{.{.].J 8 q.I.E.Y.U.R.U./.9XrXtX*X9.U.O.%.%.%.&.&.} P Q.m | %.%.%.%.[ 6 B c.qXtXtXyX=X{.{.{.{.{.~._ q > J P.~.{.{.",
"{.{.{.{.{.{.` < ~ K.L.Y.R.I.R.U.h.'.:Xx.q.U.o.%.%.%.%.%.0 Z ) M } %.%.%.%.&.S B 9.>XrX3X'.].}.{.{.{.{.{.W.b ; ^ P.R.].{.",
"}.{.{.{.{.{.P.1 V d.d.d.g.d.L.P.d.q.L x ^ P.H {  .&.@.@.0 f N M } $.@.&. .| ^.).R./.c.q.P.~.{.{.{.{.{.{.~.b q ` g.R.~.{.",
"{.{.{.}.{.~.I.j < W _ ~ ! R C b j h > 3 V ` T P z g t 0 7 d z Z g S S S Z U !.).}.).W j q.E.].{.{.{.{.{.~.v k d.g.Y.Y.~.",
"~.{.{.{._.W.I.V > > & & % & = > 3 h h 1 1 A U U U T P f z f f N P U T U U U ' .X}.}.~.k A P.~.{.{.{.{.].W.k V d.g.Y.R.Y.",
"Y.!.{.{.~.R.d.k 1 v V C J ~ q.d.P.Y.P.W < m U N m m m 7 , : 2 f f f f f P U ) ~.].}.{.d.3 ^ P.~.~.~.E.E.I.j A d.d.I.R.R.",
"R.R.R.W.R.I.~ > v e.I.W._.{.{.{.{.}.}.).^ P U U N f f 7 f f F : f z N P U U U R.W.W.).~.V h ` Y.Y.Y.I.P.d.8 J d.d.L.Y.R.",
"Y.R.R.R.R.g.x < q.).{.{.}.{.{.{.{.{.{.}.K.U T U U U M f d ) E.f f M U U U U U ' R.U.I.I.( ; b q.P.K.` R x & G d.d.q.L.P.",
"I.U.R.R.P.~ ; F I.).{.{.{.{.{.{.{.{.{.{.) U U I U U U M d e.).Y f f Z U U U U E q.q.` ~ C > > q h 8 > ; 1 3 3 ( d.e.d.d.",
"d.g.P.P.e.h 1 q.I.R.W.).{.{.{.{.{.{.~.~.) N l 2 f M I f c e.U._ f f f P I P P Z C < ; ; = 3 r < 3 x k r 3 3 > 1 A ` d.d.",
"_ q.d.d.C % V f.L.U.R.R.R.W.).~.W.E.R..XaXdX.X` A d d d N d.d.' f 7 7 2 s z E oX.XV b C A h 3 h d.~.~.Y.q.J x > ; 1 b E ",
"1 h k k = = A d.e.L.I.Y.R.R.R.R.R.Y.I.aXkXvXbXbXcXdX!.' E h r A E ) K.P..XgXgXlXiX{.).].].d.< C R.~.{.{.{.].W.^ 1 1 > > ",
"_ W C x h q = r G _ q.d.P.I.Y.I.I.g.` 2XxXxXaXlXbXbXbXvX{.h > b XXxXbXxXcXvXkXjXQ..X}.{.{.{.J k P.W.].{.{.{.}.W.3 8 ( ` ",
"W.~.].~.!.^ q q < < d b G ~ ` e.^ b q '  XfXjXkXvXvXbXvX.Xh > C aXxXbXxXkXjXpX XK.~.).{.{.{.Y.h ( Y.E.).].{.].Y.1 V Y.E.",
"P.P.Y.W.W.I.h q h q < q V x 3 r < < V g.P.q. X2XiXoXfXpX!.k 1 r Q. XiXiX.XU.d.K.q.P.Y.W.W.].].G C P.Y.Y.R.R.R.` > b g.P.",
"C C C G J C < h d.e.h k U.d.3 3 C g.).{.`.j.v.v.f.K. X~.].~.Y.~ J !.{.f.^.+X#XW 3 V _ g.I.R.R.` k ` P.P.P.g.W r < < k x ",
"R C j 1 ; < 1 W {.{.P.h V x h _ E.{.}.`.].3XrX4Xc.d..X.X}.}.}.I.q k J L >XtXwXL < q r x ~ d.P.d.h J d.q.W x < 3 C W ~ ~ ",
"{.{.~.P.G < h P.{.{.{.q.3 1 W P.W.}.}.}.].5XyXyX/.P.)..X{.{.}.!.x 1 r d.9XtXtXv.; C g.J 3 k G ~ h < b h = < r b Y.{.{.{.",
"{.{.{.}.d.> V R.].{.{.].W 3 C g.R.].{.{.[.rXyXrX/.)._.}.}.}.}.W.v 1 J E.:XtXyX>XF h P.].g.b 1 1 < 3 k J G < r ( E.{.{.{.",
"{.{.{.{.^ = C I.R.].{.{.Y.k 3 ( Y.R.R.P.;XyXyXwX_.)..X_.}.{.}.E.x 8 d.E.=XtXtXtXc.2 _ E.W.W.J 3 x ` ~.{.P.1 x g.W.{.{.{.",
"{.{.{.R.x 1 3 ( Y.R.].{.P.x < r / P.q.R rXuXyXrX|.)..X}..X_.}.E.j V P.R.3XtXtXyX%Xc h.d.P.Y.J < E Y.~.{.Y.< J P.E.~.{.{.",
"].).W.^ > r < k f.Y.E.E.^ < h k f R /.F wXyXyXyX:X_._.}._..X).I.r J P.^.tXyXtXyX(.K ^.z T.9.3 q b ` Y.W.d.> ( P.Y.Y.E.^.",
"P.I.d.h > b J < G g.Y.d.r < / -X%Xf r.S 9XtXuXyX=X).{.}.}..X_.e.8 b g.T.-X0X0XqXT.S g 9.9X>XD 2 < 8 C ~ J > E e.e.g.I.I.",
"d.q.V ; b Y.].W ; ^ g.b ; k v.'.+XQ f c '.>X:X+X9.~.}.}.}.).E.q.2 < ~ ^ 5.v.(.(.9.N : 9.9.T.h.( G r < < < > ; j C ! _ e."
};
