/* XPM */
static char *collect1714485610[] = {
/* columns rows colors chars-per-pixel */
"60 70 230 2 ",
"   c #150B01",
".  c #1B0C01",
"X  c #160300",
"o  c #1B1006",
"O  c #1E140A",
"+  c #1C1B16",
"@  c #0F0500",
"#  c #220400",
"$  c #260B00",
"%  c #2B0E00",
"&  c #280500",
"*  c #2D1100",
"=  c #25190D",
"-  c #24180C",
";  c #331300",
":  c #3B1500",
">  c #341A02",
",  c #3A1B01",
"<  c #321B09",
"1  c #221F1A",
"2  c #271C12",
"3  c #300E00",
"4  c #3B230C",
"5  c #33200F",
"6  c #2E2114",
"7  c #24231D",
"8  c #2C241C",
"9  c #33271B",
"0  c #3B2B1B",
"q  c #3A291A",
"w  c #262521",
"e  c #282722",
"r  c #2B2A25",
"t  c #2E2D29",
"y  c #272822",
"u  c #342D25",
"i  c #312F2A",
"p  c #3D2F22",
"a  c #2F302B",
"s  c #3A3125",
"d  c #33322D",
"f  c #3B352D",
"g  c #363631",
"h  c #393732",
"j  c #373832",
"k  c #3B3A35",
"l  c #3E3D39",
"z  c #431C00",
"x  c #4A1F00",
"c  c #421400",
"v  c #4C2200",
"b  c #4A2708",
"n  c #512300",
"m  c #552C09",
"M  c #5D3009",
"N  c #422913",
"B  c #462D19",
"V  c #4B331C",
"C  c #582F11",
"Z  c #683D19",
"A  c #643914",
"S  c #713D15",
"D  c #61310B",
"F  c #42362A",
"G  c #48392A",
"H  c #453627",
"J  c #423D35",
"K  c #413E39",
"L  c #493D31",
"P  c #3F403B",
"I  c #6E411A",
"U  c #7A461A",
"Y  c #57412C",
"T  c #4C4135",
"R  c #44423D",
"E  c #49453D",
"W  c #534233",
"Q  c #5E4B36",
"!  c #56483A",
"~  c #774922",
"^  c #624D39",
"/  c #68533E",
"(  c #71492C",
")  c #464541",
"_  c #494642",
"`  c #474843",
"'  c #4B4A44",
"]  c #4E4D49",
"[  c #524D45",
"{  c #504E4A",
"}  c #5D4F44",
"|  c #54524C",
" . c #5C554C",
".. c #5A5046",
"X. c #565651",
"o. c #595752",
"O. c #5C5A54",
"+. c #5F5E59",
"@. c #575852",
"#. c #4F504A",
"$. c #635443",
"%. c #64594D",
"&. c #6B5A49",
"*. c #705F4D",
"=. c #605C55",
"-. c #615E59",
";. c #685E52",
":. c #624F41",
">. c #64625C",
",. c #6B655B",
"<. c #656056",
"1. c #7A6C5C",
"2. c #746659",
"3. c #72614F",
"4. c #666561",
"5. c #696661",
"6. c #6C6A64",
"7. c #6E6D69",
"8. c #736D64",
"9. c #726E69",
"0. c #796F65",
"q. c #73726B",
"w. c #79756D",
"e. c #797469",
"r. c #777671",
"t. c #797771",
"y. c #7C7A74",
"u. c #7F7D79",
"i. c #864E1E",
"p. c #A55314",
"a. c #A95517",
"s. c #AC5B1B",
"d. c #A65518",
"f. c #B05F1E",
"g. c #B1611F",
"h. c #AF601E",
"j. c #8A562D",
"k. c #89562A",
"l. c #965D2C",
"z. c #8A5A32",
"x. c #AE5E22",
"c. c #B05F20",
"v. c #9C6232",
"b. c #986337",
"n. c #AB6127",
"m. c #B36323",
"M. c #BD6D2C",
"N. c #B5682A",
"B. c #BF702E",
"V. c #A46836",
"C. c #A46B3C",
"Z. c #AA6D3B",
"A. c #A76835",
"S. c #BD6F30",
"D. c #B66B31",
"F. c #BD7134",
"G. c #BD753B",
"H. c #BE793E",
"J. c #B5723A",
"K. c #AC703C",
"L. c #C06F2E",
"P. c #C0712F",
"I. c #C17231",
"U. c #C2783C",
"Y. c #AD7243",
"T. c #AE794F",
"R. c #B57642",
"E. c #BC7A44",
"W. c #B87843",
"Q. c #A86F42",
"!. c #84786A",
"~. c #827D75",
"^. c #827E79",
"/. c #897F74",
"(. c #C07B43",
"). c #B58056",
"_. c #8C8275",
"`. c #85827B",
"'. c #89857E",
"]. c #89867C",
"[. c #9A8D7D",
"{. c #918171",
"}. c #8A8680",
"|. c #8D8A83",
" X c #8A8985",
".X c #918E86",
"XX c #928F88",
"oX c #988C80",
"OX c #939186",
"+X c #95928A",
"@X c #99968D",
"#X c #9B988F",
"$X c #9C9286",
"%X c #9A9790",
"&X c #9D9A92",
"*X c #999893",
"=X c #A3998C",
"-X c #A6988A",
";X c #A29E95",
":X c #A29F98",
">X c #AA9E95",
",X c #A4A196",
"<X c #A6A39A",
"1X c #A9A59C",
"2X c #ABA89E",
"3X c #ABA295",
"4X c #B4A99C",
"5X c #AAA7A0",
"6X c #ADAAA2",
"7X c #A6A5A0",
"8X c #B2ADA3",
"9X c #B5AEA6",
"0X c #BCB6AB",
"qX c #B9B4AB",
"wX c #BEB7B1",
"eX c #C6BCB2",
"rX c #C3B5AA",
"tX c #CAC3B9",
"yX c #D1C7BE",
"uX c #D9D3CC",
"iX c #D6CFC7",
"pX c #E5DBD3",
"aX c #ECE5DD",
"sX c #EEECE9",
"dX c #F3EFEA",
"fX c #F7F3EE",
"gX c #F5F6F4",
"hX c #F9F5F2",
"jX c #FDFCF6",
"kX c #FFFEFA",
/* pixels */
"a a d 6.<X<X<X6X>.d R d `.,X<X<X1X<X%X+.+ R |.+X+X#X<X1X1X+X@Xq.h ].j 9.}. X+X+X%X-.w @.*X1X<X<X1X:Xo.h ] k j k g r 7 7 ",
"` l 4.<X1X<X<X1X&XP t 6.#X<X<X<X<X<X1X;Xo.r ~.+XXXOX+X;X%XOX%X-.' 0Xq.i y.}.}. X XX.t @.XX&X1X<X<X5X+Xl j ]  X+X+XXXu.' ",
"k >.<X1X<X<X<X<X<X>.d y.OX,X1X<X<X1X<X1X%XR | +XOX+XOXXX.XOX^.d >.<X`.t l 5.t.y.r.g j ] }.+X;X<X1X<X6X9.w -.;X<X6X7X7XX.",
">.,X1X<X1X<X<X;X#X>.a +.OXOX<X1X<X<X1X;XOXR k ^.]..XOX+XXX9.j t | +.t j k w 7 i d k ` j y.XX+X;X1X1X1X*Xg ] XX+X+X%X9.t ",
";X1X<X1X1X1X,X+X].k l l ~.OX@X,X1X1X%X%X>.j j @..X'..Xt._ 7 l | i r o.+X+X.X9._ g 7.6Xl o..X.X$X+X&X3X1Xo.j }.+XOX`.t ] ",
"&X,X,X,X;X#XOXOXR d k y X.].+X+X%X+X+X`.d P k 7 -.6.) d ] u.%X5X6.i }.8X5X5X6X<Xl 6. Xe r y.}.XX+X+XOX#Xt.r 5.+X}.g ) +X",
"OX+X+X#XOX].OX@.7 y.,X| 7 q.|.OX+X+XOXP a r.*Xj r 7 _ }.1X1X1X8Xy.i XX1X<X:X<X1X) j g l r g ^.`.}.OX+XXX`.f _ y.k d }.OX",
"].].].].`. X>.7 9.6X1X<X_ t `.'.|.+XX.7 t.1X6X6.j ) +X1X<X<X<X6Xy.k XX1X1X<X1X&Xj t ] 7XXXR k ^.'.`.'.}.5.r d g a r.`.`.",
"}.}.}.^.|.6.w { 2X<X<X<X#Xf l '.|.4.1 4.5X<X2X].d X.+X<X<X1X<X6X9.K +X%X,X1X6X`.r K %XwXeX5Xh g t. X Xq.a O.7.d ' }.}.'.",
"-.5.9.7.=.i h XX1X<X<X<X2X`.y ' +.7 X.7X<X<X1X;Xh O.+X;X1X1X&X%X-.R +XXX+X;X1X=.7 w.0X8.L 8.+Xh a 6.| ' `.1X9X>.r k ' X.",
"w e e t i h 5.5X1X1X1X1X<X5X+.r t l @X1X,X<X<X1XR X.%X+X=X+XOX XK _ |.XX+XOX.Xf J 2XT . F   F /.d l P '.<X*X@X| g t w 7 ",
"'.^.+.h ' l }.:X<X<X<X1X<X1XXXk k y.6X<X1X<X<X2X| | @XXXXX.Xr.l g _ }.'.|.+Xq.1 `.8.- rXjXyX- ;.q.r 4.*X.Xq.k d ] -.r.`.",
"6X6X<X] d _ |.&X1X<X<X<X<X<X:X_ R &X1X1X<X1X1X6X| ' +X|.w._ w t g r [ }.XX%Xl l 3Xs 2.kXfXkX=X2 ~.f [ 6.) t R }.+X#X1X6X",
"<X,X1X'.d R }.+X<X<X1X<X<X<X*XJ | &X<X<X<X<X<X6X+.a >.) d ' w.XX}.-.e i @.X.e 8.3Xs e.jXgXkXpXo   s h K ' d 6.|.OXOX#X1X",
"<X<X<X1Xo.u t.XX%X1X1X1X<X<XXXg ,.%X,X<X1X<X<X<X+.a t { }.1X1X8X0XeX2X[ r d K ^.@X,.- 3XkXgXsX1X+XO %.6X&XR l u.}.OX+X%X",
"#X,X<X6X.Xe =.XX+X%X1X<X<X%X}.t y.@X&X1X<X1X&X%X+.r 4.&X,X2X4X[.3.! Q *.W =.8.'..X$X. 8.kXgXgXkXjX..%.0X1X+.k R q.]. X|.",
"|.OX@X&X1X@.h |.OXOX&X<X#X#Xt.d '.OX+X1X1X,XOX#X| d '.@X8X=X^ ; : z x x : * W /.$X! 9 aXkXgXjXsXjX<.} qX2Xr.j j 7 ' u.}.",
"~.|..X.X#X|.u 9.|.+XOXOXOX#X>.f OXOXOX&X,X+XOX#XE _ .X3X&.4 m k.Q.R.W.Y.b.I ; 4 W 6 eXjXgXjXsXkXaXu 2.9X6X9.y u.].g a O.",
"l >.`..X.X&Xo.E }.|.+X+X+X#X_ R OX+X+XOXOXOX+XOXh O.;X^ % ~ E.H.G.F.F.F.G.E.C.D # :.jXhXkX^.9 1.0 9 3X1X<X_ ] 6X6X*Xj d ",
"a y h -.^.XX.Xj q.'.}. X|.|.d | ].].OX+X+XOX+X'.r w.1.* j.E.F.N.x.S.M.g.M.M.G.W.~ # !.kX!.X G q 6 _.,X#X}.d `.6X1X%Xk k ",
"O.] h 7 r [ y.R l  X}.}. X7.w ` }.}.^.|.OXOXXX+.7 0.B S E.M.B.B.S.L.M.s.P.m.m.F.W.S % ! 2 8.+X .f `.+X+X>.k ,X<X<X8.7 #.",
"6X1X;X}.-.h 1 e d ] 4.+.' r k d K 9.^.'.}.r.' w E W v Y.G.M.M.B.S.L.B.F.L.M.M.S.S.W.A # ^ %.r r k r.XXOXk O.%XXXOXP #.&X",
"1X1X1X1X6X<Xu.) g j y w k R P j r 1 i { R 7 7 R  .> I H.S.s.M.P.B.B.B.B.L.P.P.B.S.F.Y.x q s J #.P >.|.q.y u.+XXX6.u |.&X",
"1X,X<X<X<X1X6X&X) P P y.@X&X@X].9.| t 7 a ' `.,X/.; A.U.B.N.M.B.B.B.B.B.P.M.B.I.M.D.U.k.; %.R k R a j y w @.+.X.d =.%X@X",
"1X<X<X<X<X<X<X<X#.r r.&X+X1X1X5X5X:X+Xo.d t.8X9X/ b W.B.B.P.B.B.M.P.B.B.B.B.B.B.P.B.B.W.m Y -X_ l k ' ' h 7 y j g `.+X+X",
",X1X1X<X1X<X2XOXr ` |.OX+X<X1X<X>X5X5X>Xl O.6X-X, i.H.B.P.B.B.B.B.B.B.B.P.B.B.B.P.M.B.G.b.* $Xw.r y.6X5X&X`.) j ] OX+X+X",
"&X7X<X<X<X<X2X7.+ 4.}..X+X<X<X3X<X<X<X8X6.J =XV v Y.F.B.B.B.P.P.B.B.B.B.B.B.B.B.S.I.M.n.W.n $.<.k ,X7X<X1X8Xu.r >.#XOXOX",
"+X&X1X<X,X<X;XP r >.}.'.OX,X1X1X1X<X<X1X`.! V , V.D.N.I.I.B.B.M.I.P.B.B.B.B.B.B.L.L.m.p.H.U N E >.6X<X<X<X5X`.t 9.|.+X+X",
"+X+X&X<X1X1Xr.a j ] }.^..X@X;X<X<X<X1X;X;.> c v.H.m.N.P.g.B.M.P.g.M.I.M.B.B.B.B.P.L.s.p.M.v.> T `.1X<X<X<X2X`.t ^.`..X$X",
"+X+XOX+X#X#XP j R i ^.^.'.+XOX@X@X#X@X%.$ v C.H.B.I.P.M.m.M.P.P.g.N.F.F.B.B.B.B.L.N.p.p.m.K.> ! OX,X1X<X1X6Xw.g `.^.`..X",
"+X+X+XOX@Xq.7 y.,Xd -.}.^.}.OX+X+X].! $ M K.G.D.F.B.B.B.P.B.L.S.P.P.B.B.B.B.B.B.I.m.p.p.m.R., ^ #X+X<X1X<X:X5.J ].^.`.`.",
"`.OX+X+XOXa +.6X6Xy.h }.^.^.}.].0.G & S R.F.B.B.B.P.B.B.B.B.S.L.P.P.B.B.B.B.B.P.M.d.a.p.m.K., &.=XOX#X#X+X+Xo.i }.`.`.`.",
"'.}.XX%X] j ,X1X<X1Xj +.OX`.6.J q * U E.F.m.m.P.L.M.B.B.B.P.P.B.P.P.B.B.B.M.P.P.x.a.a.p.D.Z.: 1.@X+X+X|.r.O.k a P q.`. X",
"6.w.y.-.e u.6X,X,X8X6.y | R 8 F 4 U ).B.P.M.M.P.M.g.P.P.B.P.M.B.B.B.B.P.B.P.M.f.a.a.a.d.U.l.; /.q.=.' d 7 7 a j t y k X.",
"7 7 r w { :X1X1X<X1X].a t u  .Y M J.D.B.P.P.B.B.M.L.M.P.B.B.B.B.B.B.B.B.P.M.s.p.a.a.d.N.(.S 4 -.t 7 u J #.+.>.>.R k k y ",
"~.q.' j q.:X1X1X<X@X.Xk ` k 2., v.H.B.B.P.B.B.B.P.M.P.B.B.B.B.B.B.B.B.P.L.s.p.a.p.p.m.I.Y.n 3.{ R y.+X&X<X1X<X8Xt.g ) -.",
"6X8X*Xk q.+X1X&XOX#X7.j P R H b J.M.M.L.P.P.M.P.L.B.B.B.P.M.P.B.L.S.M.M.s.p.p.p.a.N.L.(.~ b =Xh ,.1X1X<X<X<X<X2X`.d ' *X",
"<X,X8X| O.OX+XOX+X].j a j T < Z ).g.g.P.M.P.P.P.P.B.B.B.B.B.P.B.L.L.I.f.p.p.a.m.M.G.(.j., !.4Xf q.&X<X<X<X1X1X6Xu.7 >.&X",
"@X+X;X7.P }.OX+X Xk r >.@X_.> U U.L.P.P.P.M.P.M.N.P.L.L.B.B.M.S.L.L.N.p.p.f.L.I.H.C.Z , 3.9X;XJ y.@X,X1X<X<X<X6Xq.y q.#X",
"OXOX|.6.a t.|.}.R r '.2X<X4XV I U.L.P.P.P.P.P.M.m.P.L.M.B.B.I.I.L.M.a.p.m.U.(.A.S ; 4 !.9X1X#XR ~.@X+X<X1X1X1X1X+.t 7.XX",
"k j a t k | y.l r  X6X<X<X4X^ A (.B.B.B.B.B.B.B.F.B.B.B.B.B.L.L.S.s.p.x.G.Z.Z 3 ; &.=X3X<X,X.Xh y.#XOX@X&X&X&X%X` l j g ",
"] | #.) g a a a u.6X<X<X<X4X*.b H.B.B.B.B.B.B.B.B.B.B.B.L.F.L.L.m.p.s.F.V.z > } 0.qX;XOX+X@X}.d 9.].OXOXOXOX@Xt.t j l ) ",
",X1X<X;Xu.d l X.,X<X<X<X<X8X{.> Z.F.B.B.I.U.F.B.B.B.B.B.P.P.I.N.p.a.D.R.m > [.2XE ,.|.}.OX+Xr.y <.|.].|.+XOX}.k t q.XX:X",
"<X<X<X<X6X+.y +.%X1X<X1X<X1X=X> U H.F.H.A.i.A.H.D.B.B.B.M.P.L.s.p.m.U.k.* 2.,X+X6.k `.^.t.O.t a y #.y.].|. X] 7 +.&X<X<X",
"1X1X1X,X1X].7 O.|.;X<X1X1X#X=XQ x R.W.A., # : j.G.M.B.B.B.P.s.p.a.S.R.n B ].+XOX+Xk h g 7 t #.>.O.d 7 l O.` r k t.@X1X<X",
"<X,X1X<X1X<XP ' |.OX@X#X+XOX$X{.3 j.T.n 4 rX! & l.G.B.B.P.m.d.p.m.G.z.* } O.].%X%X-.h h 7.|.&X6X1X;Xw.P 7 t l ` .X&X1X<X",
"<X<X1X1X,X6X+.d ].|.+X$XOXOX.X=XQ < Y & 9XkXdXZ n W.F.N.g.d.p.d.M.W.m B %.r t #.~.r.i { %X&X<X<X<X<X6X1Xy.P d >..X$X1X<X",
"<X<X<X<X<X6X`.r t.'.|.OXOXOX.X$X[.H X !.kXdXkX2.c J.N.p.p.a.p.m.U.v.; ! #.t.9.) i d g o.@X<X1X<X<X1X,X<X1X' r r.|.@X<X<X",
"<X<X<X<X<X<X+Xa X.|.^.`.'.XX.XoX-Xp L hXhXjX>X# U (.x.p.a.a.d.D.W.D /  ._ *X1X8X+XO.i { +X:X1X1X1X1X<X,X,X] j `.'.+X%X1X",
"<X<X<X<X1X&X+X` t q.y.!.~.;...%.T o iXkXjXiX$ C W.L.c.p.d.p.x.E.j.b -X8.J XX%X1X5X9X4.d }.+X<X<X<X<X1X1X5X_ E '.`.+XXX&X",
"#X<X1X<X<X+X+XX.d r w u 2 . - O @ ;XkXgXsXN z T.J.M.M.c.d.x.U.b.v 1.9X`.h XX%X:X<X7X1Xl o.OX@X1X1X1X<X&X:XR ..}.`.OXOX+X",
"OX@X<X1X#XOXOX` g ] =.8 F eXpXiXwXhXjXkX[ X b z.W.H.G.G.H.E.b.: Q 1X2X%XJ ^.+X&X<X<X6X}.r y.XX@X;X%X+X+X%XK o.|.^.XX+X+X",
"+XOX+X#XOX+Xt.y ] |.$X2 8XjXhXkXkXgXkXt.o G 5 * m j.b.Q.b.Z & Y 3X3X1X;X) 9.XXXXXX%X%X5X] j  XXXOXOXOX.X|.j -.}.^.'.+X+X",
"+X+XOX+XOX.X' r '.;X>X6 rXkXkXgXsXkX>X  e.6.8 ! q $ : : * * &.3X2X<X#X#X[ O.|.}.+XXX+X+X`.e '  X.X|.u.6.' w 4.|.~.^.}.XX",
"|.+X@X+X.Xr.7 >.OX;X4XH ].jXeX-.dXkX,.q <XOXR f w.!.W H %.[.;X@X#X+XOX&X-.j y.u.`.'.u.q.@.g a k R j t r k l h y.}.^.^.^.",
"`.`.].|.}.P a `..XOX;X0.2 L   2.kXkX4X6 $X+X) y f @.R R 8..X.X.XOX+XOX.X4.r f h j t r r w k ] d j _ R k j k t g -.^.}.}.",
"^.|.|. X+.+ -.'.].OX+X@X,.G $ 3XkXkX4X2 OX] w ] [ 7 k k X.`.}.|.OX+X|.XX4.a ) l ' ) ] @.>.l j R |.1X,X@X`.>.` a r j | 6.",
"i k _ R e i -. X'.'.|..X=X9Xs ..aXuX! s ' y ) +X6X XX.k r i l ) #._ ) l g a #. X@X1X1X6X6X|.r +.&X&X1X1X6X6X:Xq.j k r e ",
"r.5.X.R R h t P >.t.`.|.].@X!.= - - = u u l o.%X&X6X5X4.g k g d t o.q.| l P ] +XXX*X1X<X<X6X>.K +XOX,X1X<X<X1X<Xg h u.`.",
"&X<X6X6X&Xr.k l d d K { +.9.`._.%.L u f l 7 +.+X|. Xq.K t l k ' R }.9X6X] P k u.%XOX;X<X1X6X+Xk y.OX+X&X,X,X<X%Xt X.%X@X",
"+X+X+X*X&X:X) k R j j k | E j R h i  .'.&XO.t ] ) j w d R l d y a q.;XOXj t t ) u.+XXX@X#X;X2X@.@.|.+X+XOXOX*X^.r o.+XXX",
"[ | O.-.>.X.g k XX Xk ) 1X+Xj d @. X5X1X6X,XR a P g 6.*X:X:X&Xq.7 <.#X=.+. Xl r h { y.XXOXOX@Xu.k `.]..XXX X7.k g i k _ ",
">.| l r y j d 7.7X6XXXd @.` k u.;X6X<X<X<X6Xu.j P @.:X5X1X1X6X%Xk R >.@.:X6X%Xk h k h E q.'.|.+Xk 4.XX}.q.) t j O.9.q.9.",
"6X6X1X@X+.j R |.1X<X6X}.d g 7.XX%X1X<X<X<X<XXXa l XX7X<X1X<X<X&X` j d  X1X,X6X`.r -.@XO.t R >.r.R a | j 7 g R | &X1X6X6X",
"<X<X<X6XOXy o.%X;X1X<X6X9.t +.|.+X,X1X1X<X,Xr.w w.<X1X<X<X1X1X:X' d 5.:X1X1X<X5X-.k @X6X X) t h g j K >.4.g l q.#X<X<X<X",
"1X1X<X6Xq.y +.+X+X<X<X<X*X` d y.+XOX%X;X&X#X' R *X1X<X1X1X,X5X&X' h }.=X>X1X<X<X;XK t.+X<X7X4.k ` `.7X8X%Xt ' XX@X<X<X<X",
"1X<X<X&X) j l y.+X+X,X<X+X' d R y.XX.X+X+X`.i u.<X1X<X1X1X,X1X&XK | +XOX:X1X<X<X9Xo.| XXXX&X7.e 7.%X%X5X*Xr >.XXOX,X1X<X",
";X<X*Xr.t ) r ' |.+X+X;Xq.a ' k i -.'..X+X' ' ;X<X<X<X<X<X1X1X%Xh ,.XX+X%X<X1X<X8X5.i ^.y.] t ) X.`.+X&X Xa y. XOX+X@X;X",
"|.|. Xl t | 4.w O.OX+X].l j a P E r k 7.4.r y.;X1X1X<X1X1X1X:X Xd | |.XXOX&X<X<X1X9.i j 7 w j j t g X.r.4.y q.'.'.|.}.|.",
"`.`.#.y X.*X8Xq.7 9.}.] a ' r.&X;Xy.g r r ' |.OX&X1X<X1X<X<X+X`.k d 9.|.OX+X+X+X#X5.h k @.y.^.y.5.R t g d g r R o.6.w.^."
};
