/* XPM */
static char *floor1714485627[] = {
/* columns rows colors chars-per-pixel */
"60 70 100 2 ",
"   c #17140F",
".  c #19160E",
"X  c #1A1711",
"o  c #1E1B15",
"O  c #221F17",
"+  c #221F19",
"@  c #232017",
"#  c #25221C",
"$  c #28251E",
"%  c #2B281F",
"&  c #262520",
"*  c #292621",
"=  c #272820",
"-  c #2D2A24",
";  c #2E2D28",
":  c #302D26",
">  c #312E29",
",  c #35322C",
"<  c #38352E",
"1  c #3B382F",
"2  c #373530",
"3  c #393631",
"4  c #3C3A34",
"5  c #3E3D38",
"6  c #413E36",
"7  c #413E39",
"8  c #3F403A",
"9  c #434037",
"0  c #45423C",
"q  c #48453E",
"w  c #4B483F",
"e  c #474440",
"r  c #494641",
"t  c #4D4A44",
"y  c #4F4E49",
"u  c #514E46",
"i  c #514E49",
"p  c #515147",
"a  c #55524B",
"s  c #58554E",
"d  c #575651",
"f  c #595651",
"g  c #5D5A54",
"h  c #5F5D59",
"j  c #615E56",
"k  c #615E59",
"l  c #636057",
"z  c #65625C",
"x  c #69665E",
"c  c #6A685C",
"v  c #676661",
"b  c #696661",
"n  c #6C6A63",
"m  c #6F6B68",
"M  c #716E66",
"N  c #716E69",
"B  c #737067",
"V  c #75726C",
"C  c #79766E",
"Z  c #7B786F",
"A  c #777671",
"S  c #797771",
"D  c #7D7A74",
"F  c #7F7C78",
"G  c #817E76",
"H  c #827F79",
"J  c #848277",
"K  c #85827C",
"L  c #89867E",
"P  c #8B887F",
"I  c #878681",
"U  c #8A8781",
"Y  c #8D8A83",
"T  c #8E8D88",
"R  c #918E86",
"E  c #928E88",
"W  c #949186",
"Q  c #95928B",
"!  c #99968E",
"~  c #9B988E",
"^  c #979691",
"/  c #9A9791",
"(  c #9D9A93",
")  c #9E9D99",
"_  c #A19E96",
"`  c #A29E99",
"'  c #9FA098",
"]  c #A4A197",
"[  c #A5A29B",
"{  c #A9A69E",
"}  c #ABA89E",
"|  c #A6A5A0",
" . c #AAA7A0",
".. c #ACAAA3",
"X. c #AFACA8",
"o. c #B0ADA6",
"O. c #B1AEA9",
"+. c #B4B1AB",
"@. c #B8B5B0",
"#. c #BCB9B2",
/* pixels */
"- , , x { ` ` ..b > 0 < H ` ] { ` o./ g + 7 Y ~ R / o.` ..( ~ G 6 H , G H U E / / f * g !  ...] } ] s 6 w 6 6 6 6 X * + ",
"t 6 n ] { ..{ { ` 6 : M ~ }  .` { [ [ _ f % H ! ! R ! _ ] H / x u O.G > G U Y U U f > u E ( `  ._ } ! 6 6 u H / R ! H r ",
"4 z ` o.{ / O.{  .g 3 V / { {  . .[ [ o.[ 7 s E E E R E E ! H $ z  .K > 6 b H G H 6 6 t Y / ( [ { } { x + j ( { o. .` u ",
"j { { } ]  .{ ( ! x - j ! R  ._ `  .{ ! Y 7 6 G R R R ! E n 6 6 u k > , 7 *   , * 6 7 6 G U Q [ [ [ { [ 6 a ! E E ! G : ",
"{ ` o.( .. ._ / J 7 9 7 S ! / ]  .{ _ _ x > 6 s H U ! G 6 % 6 u > $ g R / U G e > G ` 7 f E E E ~ ( ` { f 6 H ~ ! G > i ",
"( _ ( } / ( ! Q t : 3 * f Y Y ! _ E E G 6 6 6 @ j G 7 6 a H ( { n 6 H +. .` O.[ 6 b Y + - G Y E ! ! ! ! G : l ( H 6 e E ",
"E / Q Q ( Y U a + G ` u : N R E ! E / 7 + G R 6 + $ 7 H  .{ ` @.G 6 E { ` [ `  .7 6 > e > , H U U R ! ( G : 7 H 7 > Y ! ",
"U K Y U K R x O B { o.[ r > G U U ~ a O G ` [ G 6 7 ~  .[ } [  .G : ! `  .{  .( 6 , i ` U > 6 H G H Y H b $ 6 : - G U G ",
"L P K L R x $ i ..{ _ o.( < 3 Y R k + n { {  .Y : g E ` { _ } o.G 6 W ~ [ ` O.G % 6 /  . .E 6 > G U Y k + k m 6 r G Y U ",
"k x n V f > 3 ! ..` { ` { H - t j O s `  .` [ _ 6 j ~ (  .{ ` ~ s 6 ~ H Q  ._ z + G X.` ` O.H 7 > k 6 - H _ { k % 7 7 u ",
"$ * $ * 1 < x { { { { ` {  .s : % 6 ( .._ .. .[ 7 s ( ! ( ! R H 6 s R R ! Q Y 6 7 `  . . .`  .H 6 - 6 U ` [ ! i 6 > $ o ",
"R H k 6 q 7 G } { [ { { { { ! 3 6 G ..[ [  .[ O.u u ( E E E G 6 6 w H H R / b + G  .` ` X.[ X. .k - g / Y G 6 > u g G G ",
"_ O.] a : t R ~  ./  .{ ` { [ 7 7 ` [ { { [ ` o.s u E Y G 7 $ 6 6 % a U Y U 6 7 E Q [  .` {  .{ E > i m e > r H ! ( o.O.",
"} ` [ Y 7 7 P / { {  .`  . .! 7 u ` [ { ` o.[  .j : x 7 % u H H H j * - i r * m Q R (  . .` [ o.Y > > 6 u - G U E R ! ` ",
"{  .{ ` s : V ! !  .` { { _ R 1 b / _  . . .( o.k % 6 w H o.{ o.+.O._ r * , 7 Y E ( R E { } ` ] H , g  .` 6 6 G E E E _ ",
"! ` _ O.E * k E ! /  .{ { _ P * G E _ { [  .[ / j % z ( ..[ [ [ [ [ { ` e 7 f U Y Q Q Q _ _ ~ ( G 7 ` [ X.g : 6 G Y R E ",
"R E ~ ~ o.s 1 P Y _ E ` _ / C , U E ! } ` ` _ ! s 6 H R _  .[ {  .[  . .h * i U K / / R Q E / / f f  .` +.A ; 8 @ p D I ",
"G R W W ~ P % M R R E ! Q _ b 3 Q ! R ~  .! R ! 7 7 Q E _ [ [ [  .[  ./ i 6 r G H H R / / E Y ) i k  .` o.l ; I K ; ; z ",
"0 j G P W ~ g q P Y E _ E / i 7 R ~ ~ R Q R ! ! 6 z E R ~ [ } [ ` ` [ Q 6 > + f R U R E R Q / E 7 N  . .' q a | ..' 8 ; ",
": # 1 l H W Q < G Y H R E Y , t H H R ~ ! E ! G $ m U ! ! ] ] } `  .` G * b f o m H G R E U E G * C _ ` K ; L X.' ^ 8 2 ",
"g a 6 O % a c q 6 H Y H R M + a Y P H Y Y _ Y j $ b U R ! ` [ [ } ] } a 6  ...6 > H Y H U U F t > K Q Q v 5 ^ |  .B = t ",
"} ] ~ H k 6 # - , a M j 7 : 6 : 7 b G Y H G t - 6 i Y U ! ~ } [ } ` W 6 G ..X.` > > m m h e > > 5 S ^ Y 2 h ^ Q R 6 p ' ",
"{ { } { o._ H 0 6 7 $ + 7 7 7 7 # % , t r $ + 7 6 : H Y E R ( ` ~ { c 6 { [ / @.H + , - * 2 6 i 5 h I A & A ^ T B = L ] ",
"} _ _ { { { ..` 7 7 7 G ~ ` E P G u : + > t U [ ! 6 x H Y ~ Y Q W ! 6 l @.`  .` ` e 7 e A m 5 7 e 2 ; # + h g d : x ~ Q ",
"} ] ] }  .[ `  .i * S _ E ..{ ..} _ R k ; S @.` @.k > U U U U Q ~ G 6 ! { [ { { _ s > b ..O./ t 7 6 i 7 6 % O 6 3 L ! R ",
"] } ] } ` ` O.E > i E E E  .{ ` _ } .._ 5 k ) ` ` T * i U U U H H w 7 { ] ] ` } U 6 q ` X._ O.m * H ` ..` H w % u R ~ R ",
"~ } ] ] ` {  .M   v U U _ { _ { [ ` ` @.m 6 / / / U 2 > , g H Y G % G ~ { [ } { M : G O.` ` X.f 7 ..` ` { } G 6 z Q ~ R ",
"~ ~ } {  . .( r 2 z H E R _ ..{ { } [ } G * H E m - 6 k f * > 7 6 % P ~ _ { ] _ 7 i  .` ` X.| 3 k ..[ ..{ ..H % B Y Q W ",
"P ~ ] } } } D * , r U K T / _ ` { ` ` / 6 7 e 2 - e h )  ./ k * 6 f E Y ~ o.~ G - H { { ..` W - U { ` .._ } H % G L R ! ",
"~ P P ~ ~ ] 1 7 r - F G T / R / ! _ U 6 , , 7 r 5 * f E X.X.` F 6 6 H Q ~ ~ W 6 6 ! ! { ` _ x : ! ` } ` } o.G 6 H H H W ",
"P ~ ~ P ~ B % G ` 5 k T S U / Y / B 6 * t G Y X.E 2 2 U E `  .X.b > u Y H ~ B : u U ! _ E ! 7 u W ~ } ] _ ~ c 6 P G H L ",
"P P P ~ P 6 j } O.A , Y H H U Y j O 6 B ` ..[ | X.F + d / / / ` m 6 6 g ! H 6 6 r H Q E Y N $ k ( P ~ ~ Q W j , P H J H ",
"U H Q / u 6 ` [  .` 6 g E K G 3 . G P } } { ` ] { _ 6 : G E E G , 6 , @ t 5 o ; , 8 d y 8 ; 2 m ^ T ^ I F f 7 ; 7 m T U ",
"b G H k % H ..{ [ O.b * f 6 + 6 G ~ } ] { ] { {  .` t > 7 z u + r V Q a - 4 A ^ r * ; ; ; 8 4 h m h t 2 * # > 4 - ; 2 t ",
"* * $ $ a / { ] [ ` Y < * , u H P P ] } ] } { ] / ! r 7 > - w E  ...O./ 2 e ) ^ ; v Q ^ I A e ; > & - 3 i k b h e 7 3 > ",
"G G w > G _ ..` ` / Q , e 7 G G P ~ { ] { } } _ ! G > , i U O.{  ./ ` O.K = p 2 v | | [ X.X.T 2 r A ^ | | | X.O.A 2 e h ",
" .X.` 3 G E ` [ ! Q G > 7 > G H P ] ~ ] _ ] / E E 7 < G ` ..[ [ ] } { ' ..q - d / } } { _ ` { , N ` { ]  . .[  .T * i / ",
"` ` @.i k R R Q ! H 6 > , 6 * G H P P P ~ W W ~ G . l ~ [ { { { } { { ] ..J % z ( (  .{  .} ` 3 M ` { _  . . .O.F * b ` ",
"Q / / G 7 R Q W R 6 % j ` G % w H ] _ ~ E E _ Y 6 6 Y R ! } { _ } ! ..} [ J , q U )  .` { { ! 0 D _ _ {  .{  . .A - m / ",
"/ U E k % G R P 6 > H  .` ..G . G H H ~ E / E u % f W H ] ] ] } ] } ] [ { G 1 1 J Q Q | ..{ _ 1 H W W } { ` .. .f > V E ",
"6 - 6 % 6 s G 6 % ! { ` `  .{ a O G U E Q / G * 3 k H / E { ] { { ~ o.] [ c , , l ~ P ( | ' W 4 G ! Q E ( [ Q / r 5 2 2 ",
"r f w u % % > % G  .` ....` ..~ % 6 H H U H , 7 * G Y Y W W _ { { } ] } Q w 8 s 8 L ( ! Q ^ I , M W R ( E E / G * 7 e e ",
"` ..` ( H 7 > g {  .`  .[ ] { ..G . g Y H < < r , u Y U R ] ~ W W ! ( W L $ V ~ < n P P ^ ^ A = l H G U Y E Y 7 2 b Q ` ",
" . ...` ..l % l ! ` ..` [ } ( W ! f # j 7 6 - , - + a H E H W ~ ~ Y W ] l 2 W ' B 8 J J V g ; ; % s G U E U i o b E X.` ",
"{ ] _ { O.R % f R ( `  .{ ( ! R / K 6 - < * G ` E f * - k H E U R Y Q T = h ' I ^ 4 2 2 = = y v g % % 6 f a - 6 G /  . .",
"{ } ] { ` ` 6 7 R Q Q ( ~ R R ! / Q b > < k X.` O.X./ u * 3 f H J Y P t , p I ' ( z 2 , m T | | +.~ G 6 * - 6 r Y ( ` ` ",
"] ]  .` [ { G > H R W Q W W Q ! E E H * 7 ( `  .`  .X. .G * 3 > 8 t 8 2 8 , = p A V , y ' ^ ) | [ [ } ` H 7 > z E / [  .",
"} ] { [ { { G $ G H E R W ! E Q E U G * G / X.` ` `  .` / e 3 e 8 w 1 2 8 D N 8 , 2 , d ^ X.| | { ] [ [ [ a * G Y / ` [ ",
"] } } } [ [ ! > g R H H Y R U E H E j @ G E Q .. ._ {  .E 3 f / } ] } 7 7 ~ } ..( s : s E / X.{ } _ } ] { u 6 H P W ~ ] ",
"} ] ] ~  .` R 7 $ G H G m b k u w 6 : 6 f H Q / _  .{  .H - /  .[ } +.c 6 R ~ { ( @.z : R ! _ ` } ] _ } o.7 7 P H ! _ ] ",
"~ } } } ` ! ! f - : + * $ X + % > 3 6 $ % G Y Q R E / ` 7 t ` X.} ] ..H 6 ~ W [ o.(  .6 z R ` { ] } o._ _ 7 f H G W W H ",
"P ~ ] } ! Y / e 6 r u g l G G Y E ( ! G > 7 H H E / Q H + G  .` ] [ } ~ 6 H W _  . .o.H $ G E ! { ! W P Q 7 g U H ! ~ W ",
"~ P ! ! ! R G + i R ` ( ` } { { o.[ { ` G @ w H P P / s 3 H ` ` [ } [ [ 7 G H R / Q ` [ a 6 U ! P ~ H ~ ! 6 b Y H H Q ~ ",
"~ ~ ! R ~ W e > H ` ] [ { } ] } { _ o.{ { x + G H H H > i E E ` } [ ! ~ a g Q R E E E / H : 7 E H W G j 7 @ f H R H H R ",
"H ] ~ ! R G + b !  .} { { } ] [ [ [ [ ` / E t - G E s > k U / / ! ~ ~ ! g 6 m G H H G G s : 6 6 w 6 : 6 6 6 7 G U H H H ",
"H H H W R 6 : H E E ! ] _ { { }  .` _ ! E E 7 : > a 6 3 G Y U E ! R R ! x @ 6 6 6 - $ O $ 6 7 > 6 w 6 6 6 6 : 6 z H R H ",
"U F U E f + h U U / / E ! ! ` ` / ( E Q P u @ i i * 3 7 f F E E R Q E U z > 7 7 r e i f k 7 6 6 E  .X.Q K b e 6 - 6 a m ",
"> 7 e 5 * > m U Y K Y E E ( H R ( H E G q : 6 /  .E f > > 2 5 e r u 7 6 , 6 t R Q  . .{ O.Y : g ` Q `  .X.O.` m > 6 > # ",
"S b f i e 2 > 7 z H H U W H _ ! R E G < - 6 g ( `  .` m 5 7 > > : f G f 6 7 i / Q / ....( @.z 6 Q ( `  .`  . .` > 7 G Y ",
"` ` X. .) H 3 e : > r t l G G H G i X * 7 @ x R E U F 7 * 7 5 r r Y { O.e 7 6 G / / ` [ ` O.! 6 G Q E ` ` ` [ ` - k / Q ",
"E / / / ` ` e 3 7 2 3 3 s 7 6 7 : + j R ` g * t e > # > e 7 2 + * F / / 7 - > e G E Y Q [ ( } g i E E / E / ` G * f Q U ",
"i a f f b k * e Q E 3 r [ ( , 6 s E {  . .` u , 7 3 G `  .` / G * f | f f E 7 > 6 f G R R R ( G 7 G Y Y E U m 7 7 - 7 e ",
"g a e > > > 2 m  .X./ > g e 7 H ` { {  .` O.G > 7 f /  .) X.X.) 5 e k f  . ./ 7 6 > 6 r G U R R 6 x E H m r - 6 f m G k ",
"O.X. .E k 3 7 E  .` X.H , > G E /  .{ `  . .E 3 7 E  .`  . ./ ` e 3 3 Y  .[  .K $ z ! f % 7 j G 7 : a 6 + 6 7 a `  .X.O.",
"` ` { O.U # g E _ | ` O.V > h T ^ ) { | } ' D O Z ' { ] { } ] ] u - m { { _ } } g 9 ~ ..T 8 ; 8 , = e v h 8 8 B ) ] { ] ",
" .{  .{ G - s ! / _  .| Q t 2 A T ^ ^ ] ' ^ q w W } } { { ] [ ] e 7 G / o.[ } } ] 1 A ^ | | v 8 8 T | +.^ ; w P ! ]  .} ",
" .`  .! i > 7 G E ! ` O./ r > e D T T T W D < Z [ } } ] { [ [ ] 7 d R R _ ] [ ] +.a d T ^ ' N = N ' T ' ' = c ^ Q ' { { ",
"_  ./ H * 7 : 7 E E / / m 2 y 5 - z L R ' p w ' [ ] ' { { [ { ! 6 k ! W ~ { [ } ..N ; D H 8 = r d I ^ ' I , D P T Q ! ~ ",
"Y Q Y < , s j * g ! E U 2 5 - 7 q = 8 M z = H ' ] [ ] } [ [ ] P 1 i Y R W ( _ } | v 2 8 + ; 8 ; = , d D c 8 v J I W T R ",
"D K a : i ` O.N # n Y t 2 i A ` ' J , = ; 8 W W ] } } { ] [ _ J < < V K W W ~ W ' n 2 2 t F H D N 8 8 = ; ; , 8 p v A D "
};
