/* XPM */
static char *wall1714485645[] = {
/* columns rows colors chars-per-pixel */
"60 70 243 2 ",
"   c #1A130C",
".  c #2C1707",
"X  c #351B06",
"o  c #261509",
"O  c #3B220A",
"+  c #24231D",
"@  c #2B251B",
"#  c #362618",
"$  c #262521",
"%  c #292722",
"&  c #2B2A25",
"*  c #2E2D29",
"=  c #272822",
"-  c #302F2A",
";  c #362C23",
":  c #2F302A",
">  c #34322D",
",  c #3B342B",
"<  c #363531",
"1  c #393632",
"2  c #3B3A35",
"3  c #3E3D3A",
"4  c #373835",
"5  c #442502",
"6  c #4D2C06",
"7  c #42260C",
"8  c #4C2C0C",
"9  c #462909",
"0  c #522E06",
"q  c #532F0A",
"w  c #55310C",
"e  c #5B350C",
"r  c #5D370D",
"t  c #442B14",
"y  c #492D14",
"u  c #4D3114",
"i  c #4A331B",
"p  c #533413",
"a  c #5A3712",
"s  c #5D3A14",
"d  c #5D3D1A",
"f  c #55381B",
"g  c #4E300E",
"h  c #643A0C",
"j  c #6A3F0B",
"k  c #64390A",
"l  c #633D14",
"z  c #623E19",
"x  c #693F12",
"c  c #463727",
"v  c #553D25",
"b  c #443C37",
"n  c #5E411D",
"m  c #6C420E",
"M  c #76470E",
"N  c #6C4314",
"B  c #65421C",
"V  c #6B461A",
"C  c #694518",
"Z  c #724612",
"A  c #754A14",
"S  c #7C4D15",
"D  c #734B1B",
"F  c #7B4E1A",
"G  c #70471A",
"H  c #7C511C",
"J  c #76511D",
"K  c #5A4329",
"L  c #44423D",
"P  c #4B433A",
"I  c #584837",
"U  c #574B36",
"Y  c #674926",
"T  c #744D22",
"R  c #7C5422",
"E  c #775629",
"W  c #634D34",
"Q  c #634F3B",
"!  c #685338",
"~  c #7A5D38",
"^  c #6D512E",
"/  c #7D603E",
"(  c #403E41",
")  c #454442",
"_  c #4A4643",
"`  c #4C4A45",
"'  c #4D4B4B",
"]  c #484649",
"[  c #514E4B",
"{  c #544B43",
"}  c #5D5144",
"|  c #54524C",
" . c #5A534B",
".. c #575143",
"X. c #565452",
"o. c #5A5653",
"O. c #5C5A55",
"+. c #5D5B5A",
"@. c #595758",
"#. c #4F4F4F",
"$. c #665747",
"%. c #625C54",
"&. c #625E5B",
"*. c #6B5E53",
"=. c #735E48",
"-. c #7A664A",
";. c #63625C",
":. c #6B635C",
">. c #6C6255",
",. c #71655B",
"<. c #776857",
"1. c #666462",
"2. c #696563",
"3. c #6C6A64",
"4. c #6D6B69",
"5. c #726B64",
"6. c #726E69",
"7. c #7C6F66",
"8. c #73716B",
"9. c #7C756D",
"0. c #7D7365",
"q. c #767571",
"w. c #797672",
"e. c #7C7A75",
"r. c #7D7B79",
"t. c #7B7778",
"y. c #814F0D",
"u. c #84530F",
"i. c #814F15",
"p. c #814F1A",
"a. c #855313",
"s. c #895615",
"d. c #8B5B15",
"f. c #8C5D1B",
"g. c #84551B",
"h. c #935F1B",
"j. c #95611C",
"k. c #98641D",
"l. c #825521",
"z. c #855B24",
"x. c #8B5D24",
"c. c #835D2B",
"v. c #8B5F2A",
"b. c #8C632B",
"n. c #8B6227",
"m. c #946423",
"M. c #996722",
"N. c #9B6B24",
"B. c #91652B",
"V. c #946A2D",
"C. c #9C6D2B",
"Z. c #956825",
"A. c #9E722D",
"S. c #9D7127",
"D. c #896636",
"F. c #946C32",
"G. c #966C34",
"H. c #9C7335",
"J. c #99743B",
"K. c #A26F23",
"L. c #A16F2B",
"P. c #A67123",
"I. c #A4742C",
"U. c #A9792C",
"Y. c #A97527",
"T. c #A37632",
"R. c #A57933",
"E. c #AA7B33",
"W. c #A47A3B",
"Q. c #A87938",
"!. c #B07C30",
"~. c #A6711F",
"^. c #856A46",
"/. c #8B734D",
"(. c #947646",
"). c #816D53",
"_. c #887459",
"`. c #957A54",
"'. c #A67E42",
"]. c #887967",
"[. c #827D75",
"{. c #827E7A",
"}. c #897E72",
"|. c #917E69",
" X c #AE8134",
".X c #AC823C",
"XX c #A6813E",
"oX c #B18438",
"OX c #9B825B",
"+X c #AB8443",
"@X c #A88447",
"#X c #A58A5A",
"$X c #B18A4D",
"%X c #968469",
"&X c #85827C",
"*X c #8A857D",
"=X c #8B8276",
"-X c #968978",
";X c #9C917B",
":X c #A38C67",
">X c #AC9365",
",X c #A8967A",
"<X c #AB9574",
"1X c #B0A07E",
"2X c #8A8681",
"3X c #8D8A84",
"4X c #888684",
"5X c #928D85",
"6X c #928F89",
"7X c #949187",
"8X c #9B9284",
"9X c #95928A",
"0X c #9A958C",
"qX c #9B998F",
"wX c #9A9791",
"eX c #9D9A92",
"rX c #9D9B98",
"tX c #A69A87",
"yX c #A29E95",
"uX c #A39E98",
"iX c #B09F8B",
"pX c #ACA18A",
"aX c #B5A384",
"sX c #A4A195",
"dX c #ABA394",
"fX c #A6A39A",
"gX c #A9A59C",
"hX c #ACA89E",
"jX c #B4A997",
"kX c #BFB099",
"lX c #ACAAA2",
"zX c #AAA7A4",
"xX c #B1ADA4",
"cX c #B1ADA8",
"vX c #B8B3AB",
"bX c #BAB8B3",
"nX c #C5B192",
"mX c #C4B7A6",
"MX c #C4BDB2",
"NX c #CAC3B7",
"BX c #D3CABB",
"VX c #D2CDC5",
"CX c #E7DED0",
/* pixels */
": : > 3.sXgXfXlX1.> L 2 e.sXsXfXuXuXyX%.o b 7XtXtXpXjXjXjX,XtX=X! ;XQ %X;X-X0X8XtX%.+ | wXfXhXfXfXsXo.< ` 2 4 2 < & = ) ",
") 3 :.fXgXfXfXgXrXL : 3.eXhXhXjXjXuXiXtX<.,.%X%X_._._._._.-.-.-.-.%X_.<.].].].-X8X,.b %.8XyXdXfXfXgXwX3 4 ` 3X9X9X7X&X1.",
"4 1.hXhXfXgXfXfXgX;.> e.7XpXpX1X|.^.! v f y 9 5 5 5 5 5 6 6 6 6 5 5 5 9 5 5 9 t u v W ! _.%XyXgXfXfXlX4.= ;.rXfXlXgXfX4.",
";.sXfXfXfXfXgXrXsX1.: O.-XpX1Xn . . X 9 6 a l N V V V V V N C C m n m r r w 0 5 5 X X . f ~ }.yXfXhXgXeX4 ` 7X7X0XqX8.3 ",
"rXhXfXgXgXgXsXwX*X2 2 L =X>X1X>X^.D.~ c.E E R H J J D F A A N A N N m m m m n m z z B B E Y W 8X0XeXsXhXo.< *X9X9X&X: O.",
"eXsXsXsXsXeX9X9XU : L @ -.OXJ.$X#X>X#X$X$X@X'.J.H.H.V.V.B.b.b.b.n.b.b.V.D.b.D.n.c.c.T T x e u |.8X7X7XqXq.& 3.9X*X< L qX",
"7X9X9X0X7X3X3XO.: e.rX$.OX@XXXH.n.J.A.T.I.T.H.H.XXR.R.R.J.V.R.H.H.C.F.n.z.R A Z Z m h x x h q =.7X7X9X7X&X< ) e.2 > *XqX",
"*X*X*X*X&X3X;.+ 8.lXhX8XOX@X+XR.H.+XR.U.I.R.n.F.I.N.N.S.S.S A.h.j.f.f.s.A H A M Z Z l l C a f v =X&X*X3X;.= > < : q.&X&X",
"3X*X*X&X*X3.+ X.hXfXzXvXpX%XOXE G.(.R.E.U.E.m.T.U.P.P.K.Y.a.I.M.M.j.j.d.p.p.S Z Z x z f v i c ; X.3X*XO.= O.4.> ` &X*X*X",
";.:.4.6.O.: 4 wXhXfXlXbXbXbXmX1X<XOX(.J.F.F.R (.G.G.L.L.G.F T.v.B.n.n.n.x T V V Y Y K K I b b 2 4 ;.L : e.hXcX;.& 3 L | ",
"+ = = : > 4 ;.lXfXfXfXVXe.&XlXhXlXxXjXdXpX8X%X%X`.`.`././.=._.^.-.-.-.-.$.*.*.*.$.}  ._ ) b ] b 4 2 < &XsXqX9XX.< : + + ",
"4X&XO.4 ` 3 &XfXfXhXqX0.=XeXlXhXuX9Xq.q.6X4X3X4X*X*X}.=X}.}.}.}.].0.,.:.:.&.@.#.#.' ] ' ] b 1 % = | ;.qX3X8.3 > #.;.q.&X",
"hXlXgX` < L 3XeXsXjX1X/.E E ~ <.].=X<.[.3X4X{.[.e.3.o.2.4.2.2.4.1.o.@.1.+.+.&.@.' _ b c ; X . . O Q L 8.) : | *X0XqXgXlX",
"fXsXlX*X: L *X0XsXdX>X$XXX+XJ.E ~ ^ ! ! Q $.*.*.,.,.*.,.,.2.*.*.>. .} } { b c ; # # X X 7 i 8 p u U < 3 ` < q.3X3X7X0XgX",
"fXhXsXgXX.: e.7XqXjX>XXX.X.XJ.J.$XQ.H.A.B.R N E V x l z d q d a e e w w 9 q a e h l x z z z q a 9 n >.sXrX3 ` {.3X7X9XqX",
"0XrXfXlX7X= O.7X7XpX>X@X.XoXF.H.E.U.U.U.!.N.C.'.T.T.L.C.G.D W.B.b.x.n.v.D D l.S x M Z h l l w p g U vXfXlXO.4 L 8.*X7X9X",
"*X9X9XeXhX| 2 *X9XsX%XOXJ.XXF.XX X XY.Y. Xk.Z. XK.K.Y.Y.C.a.Q.Z.M.h.h.x.A x p.y.M Z j x e z q y # # sXxXzX8.> 4 + ` r.3X",
"&X3X5X7XqX3X: 8.9XbXBXkX1XOX/ @XJ.F.H.H.H.Z.A.H.T.Y.L.L.A.a.Q.Z.m.m.m.l.T G l.x N C z z f v v c P @ ;.bXgX3.& r.&X4 : O.",
"3 ;.&X3X5XqXO.L 6XbXbXfXhXMXvXxXtX;XOXOX`.~ D./.D.G.G.G.D.D J.b.b.c.c.T B B ^ W W I I } { b P ] 3 < X.cXsXL [ lXlXqX4 < ",
": = 2 %.&X7X7X> {.fXvX8.3XlXrXrXrXsXsXdXpXtX,X:X:X:X#X`.OX/.OX`./././.).<.,.<.*.%. .#.' ] ] ( ( 3 : X.lX*X* &XlXgXqX2 2 ",
"O.#.< + & ..w.2 U [.! -.%X8XsXeXrX&X;.4X&X&Xe.[.[.[.7.[.[.[.9.].0.5.2.:.&.&.o.#.[ [ ] [ ] ( b ; @   5.xXO.2 rXsXfX8.= ` ",
"lXgXeX3X;.> + @ U <X@XJ.~ ^ U %.<.>.,.=X&X&X[.[.w.&.1.6.2.2.2.5.2.@.+.2.&.&.&. .{ b b ; ; . . . O X >.sX, %.eX7X9X3 ` eX",
"gXfXgXhXlXsXe.P U >X@XoX$XXXF.XXn.E T V Y Y W W Q W Q Q $.} } Q Q I I c c i t t O 7 5 7 7 8 p w w 7 $.=X+ [.7X9X3.: 3XeX",
"fXgXgXsXgXgXhXqX$.:X+X X XU.A..X X XQ.T.J.J b.c.l.T T G Y a ^ z d z f a f 8 Y z x x N x e l e 0 0 7 v , + O.O. .: %.eX9X",
"gXfXgXfXfXfXgXpX<.#XXX X X XZ..XR.U.E.I.XXf.Q.R.R.I.R.T.T.g.'.V.V.m.g.l.R N l.G A m m x e w r 0 0 9 K $.> + = < > &X0X9X",
"sXfXfXgXfXfXhX*X! >XXX X XS.S..XE.U.U.I.I.d.I.U.P.~.~.~.K.u.Q.k.k.d.i.i.p.j p.Z Z m m m k w e 0 q O K mXeX4XL 2 ` 9X9X7X",
"eXfXfXfXhXfXhX>.K >XXX X X XS. XU.U.U.U.U.d.U.Y.P.~.K.~.K.a.E.M.M.s.u.i.S m H M Z m j N e w k 0 q 9 v NXhXxXr.& ;.0X7X9X",
"9XsXgXgXsXgXsX, ! >XXX X XZ.XXXX XU.Y.U.R.f.I.P.P.P.~.K.K.a.E.M.j.a.a.i.S m p.Z Z m j m e w e 0 q 5 i mXdXhX&X* 8.7X9X9X",
"7X9XqXfXfXhXe.@ -.>XXX XoX XS.XXU.U.Y.U.U.d.U.P.Y.~.P.~.K.a.!.M.h.a.a.i.a.j F M M j j j e w r 0 0 9 i vXdXlX{.> e.&X7X9X",
"7X9X7XqXqXqXL ; -.>XXX X X XXX X XU.U.U.A.d.U.P.P.P.~.~.K.u.Q.M.s.a.a.i.S j F Z M m j h e w w 0 0 9 y kXhXhXq.< &X&X=X7X",
"7X9X7X9XqX8.= 9.1X$X X X XXX X XU.U.I.I.U.d. XS.P.~.~.P.K.u.!.h.s.s.a.S i.j F Z Z j j k 0 e r 0 0 9 i dXsXsX2.2 *X&X&X&X",
"*X9X9XqX7X: O.hX1X>XXX X XZ.Z.XXU. XU.U.A.d.U.P.P.P.~.P.L.s.Q.d.s.s.a.a.S j p.Z Z j j k e 0 r 6 6 9 i tX9X7XO.> *X&X{.{.",
"&X&X9XsXX.< sXdX1X#X+X.XoXS.R. XE.U.U.U.T.d.!.K.~.~.~.~.L.s.L.s.s.a.a.S S j S M Z x x h q 0 a 0 q 9 i 8X9.o.2 : 3 8.*X*X",
"8.q.e.;.= r.hXhXpX%X(.J.@XF.XXXX.XE.I.U.T.s.Q.K.Y.P.~.P.K.a.L.g.s.u.a.S p.m F Z Z N N r p p p y 7 # # %.= + : < & = 3 | ",
"+ = & : | sXsXlXNXCXNXaX;X^./.(.J.H.I.R.T.d.Q.Y.Y.~.~.Y.Y.a.B.h.s.s.a.a.a.m D A x z d f y t c c , 1 * +.1.O.;.;.) 2 2 = ",
"e.8.` L q.rXhXlXbXbXzXrXNXNXmXaX<X:X`.(.(.E G.G.V.B.V.V.B.x v.p.F F D D D s Y Y B W Q v I { _ L ( ( * t.bXfXgXlXe.> ) ;.",
"lXxXqXL 8.qXsXhXfXbXqXq.lXfXfXhXhXhXjXxXxXiXiX8XtX;X|.:X|._.|._._._._._.7.<.5.>.&.&.X.[ _ _ ( ( ] ) & 6XvXuXfXlX&X: ` qX",
"sXfXlXO.O.7X9X9X7X>.<.=X;XsXfXrX9X;.t.5Xt.4X4X4X*X*X*X2X4X4X}.{.t.q.4.5.;.+.@.@.#.#.' ' ' ] ( c %   - MXuXfXfXlXr.+ ;.rX",
"qX9XsXq.L *X7X-X;X:XJ.~ E ^ ! -.<.<.}.=X}.*Xt.[.[.2.@.5.4.4.2.2.1.@.o.1.&.+.+.o.[ P b c ; X . . . . P mXuXgXsXlX8.= 8.qX",
"7X7X3Xq.< q.3X=X>.>X+X.X+XJ.F.D.E E Y W W I } } } } } $.$. .} } } _ P I b c c # # # X X X # y 7 p 7 Q xXgXgXgXzX+.: 4.7X",
"< < : 2 3 | r.< U <XXX X XXXXX+X+XQ.Q.H.G.D b.z.i.j x x x q l e e h e q a 6 z l d a a a f p p q 0 O $.dXqXeXeXqX` 3 4 4 ",
"` | | ` 2 : : : %X<XXX X XS.A..XE.U.U.U.Q.f.!.T.~.k.k.M.m.p.G.h.l.s.g.p.p.N F G x k h e q q q 0 6 O <.dX;X7X0Xe.: 4 3 L ",
"fXhXsXfX&X: 2  .dX1X@X X XS.S.XXU.U.U.U.E.d.Q.M.j.j.j.h.h.y.m.s.a.g.p.i.F j F Z k h e a q q q 6 6 O 0.7X3X7X*X2 : 8.9XrX",
"fXfXfXhXxX%.= ;.qX1XXX X X XA.XXE.U.U.U.Q.s.C.k.k.j.k.h.h.y.h.g.s.a.i.i.F j F x k k h e q q e 0 0 O 0.3X3X3X` = O.qXfXfX",
"fXfXfXfXxX*X= O.7X1X@X X XR.A..XI. XU.Y.L.y.M.M.k.h.h.h.h.y.h.h.s.a.y.i.S k F h h k k e 0 a q 0 6 O P 2 O.L : 3 e.qXgXfX",
"fXfXhXfXhXsXL L 5X,X#X X.XE.C..X XI.P.N.M.i.M.M.k.k.j.h.h.p.h.s.s.a.i.i.S j D h h h e e q q q 8 6 n ].3 + : 3 L *XqXgXfX",
"hXfXfXhXfXhX;.< *X;XOX+X.X XZ.R.S.M.k.k.N.S m.M.k.k.h.h.h.y.h.s.s.a.i.i.A j Z h h k e e q q q q O K xXhXe.3 : ;.7XqXgXfX",
"fXfXfXfXfXhX&X= q.;X1XD.D.F.n.H.F.N.N.N.Z.a.k.M.k.k.h.h.h.i.h.s.s.a.i.i.D k Z h e k e a 8 u y t # ; 7XlXhXL : e.*X0XfXfX",
"fXfXfXfXfXfX0X: | gXCXVXkX%X-.D.G.B.L.B.L.p.m.M.k.h.h.h.h.p.h.s.s.p.p.p.x h G h h e a u t c c b , < 9XhXsX` 4 &X*X9XqXfX",
"hXfXsXhXfXsX9X) = r.NXrXcXVXNXjX|.(.v.v.v.F v.v.v.m.h.m.v.p.v.l.l.p.p.G x a z a f v v v b b ( ( ) 3 gXfXgX_ L *X&X0X7XqX",
"eXfXhXfXfX9XqXO.: 4 fX&X6XcXhXvXbXMXmXjX8X|._.^.^.c.c.c.c.^ c.^ T ^ Q K Q Q } } $. . .' _ P b ( < O.cXrXsXL | 2X&X7X7X9X",
"7X9XsXhXeX9X3XL > | 3.>.=XyXlXsXrXwXt.6XuXuXiXuXtXtX;X-X-X|.|.|.|.].).].5.:.*.@.#.#.] ' ] _ b @ + wXqX9X9Xb O.2X[.7X9X9X",
"9X9X9XqX9X9Xq.+ [ =X,X).E Y ! ).|.6X).t.4Xt.t.t.t.2.&.5.6.4.5.2.2.&.@.:.+.@.+.@.X.] _ b ; . .   P yX7X7X3X> ;.*X&X*X9X7X",
"0X9X7X7X9X3X` : *XsXjX%XJ.H.c.Y Y W Q $.).:.].[.[.5.+.].7.6.5.2.2.o.+.:.+.o.P b c @ . o . 7 y t <.9Xe.3.` + ;.3X[.{.*X7X",
"*X9X9XqX7Xq.+ ;.9XsXhX:XF.A.V.b.Q.v.v.p.G z p z f K B v v v v v v i y t O X 7 X 7 8 y p u p 8 7 } 1 * & 2 2 < {.*X&Xr.&X",
"&X*X*X3X*XL > &X7X7XtXtXD.H.C.n.M.L.M.M.G.v.l.G.l.l.l.T T s z z s s s z s z x x l h e q q u 8 v ,.L L 3 2 2 > > ;.r.3X*X",
"r.3X*X7XO.+ ;.*X&X9X9X;X)./ D.x.L.L.M.k.k.h.p.G.m.m.M.v.p.p.p.p.F G p.G z z x h l e a q q y # c sXfXsX9X&X;.` : = < | 4.",
"* 2 ` L + > ;.*X*X*X5X0XCXnX:XD./ l.v.v.v.G.p.G.v.h.h.p.p.x p.p.p.Z x x z x z l a u y y i c , c 9XsXzXhXhXlXrX8.< 2 : + ",
"q.:.| L L 4 : L ;.e.*X3XbXeXNXVXmXiX|._.D.v.Y v.p.p.p.p.p.G G G x z h z s v f v v I { { _ ( 1 #.wX7XsXfXfXfXhXfX< 4 [.&X",
"sXgXlXhXrXq.4 3 * < L [ r.t.zXcXzXbXmXvXmXiXiX|.|.`./.^.^.v./ / c.^.=.=.=.*.*.*.%.| ' ( ( ] 4 ] {.7X9XsXfXsXsXqX: | eX0X",
"9X9X9XqXeXsX) 3 L < 2 4 1.9XeXlXzXuX2.t.6X6X6X6X8X5X-X2X2X2X-X}.[.[.7.5.&.+.@.' [ ] ' ] ) & 1.;.X.3X9X9X9X9XqX{.= O.9X9X",
"` | X.;.;.X.< 3 9X3X2 _ fX9XP I *.].].t.6X5X2Xt.t.5.@.5.4.2.2.2.@.@.+.&.&.+.o.X.L b , %   < cXr.2 &X4X3X7X7X4.4 > : 3 L ",
";.| 2 : = < < 4.lXlX9X1 X. .! -.G Y G v z Q $.=.*.).*.,.:.:.:.*.o.{ } { b c t # X . X X # 9.7X9X3 ;.6X&X6.L : < O.6.6.6.",
"xXlXhX9X;.< 3 3XhXgXlX*X1 , -.-.T / v.v.p.p.z y f f f y i y y y t y 7 7 X t y y f f y t $...%.q.L > | 2 + 2 3 | eXhXlXlX",
"fXfXfXlX9X= X.qXeXhXfXhX8.: >.-X=.^ ~ n.B.B.b.A z.z.l.l.l.Z G T V D Y z s V B d p u c ].9XL : 4 < 2 3 ;.1.> 2 q.eXfXfXfX",
"hXfXfXzX8.= O.9X7XfXfXfXeX) : e.qX-X).E V R D.G z.x.z.z.l.A D F D D V l a d p d W c 0.qXsXfX;.2 ` {.fXlXqX: ` 7X9XfXfXhX",
"hXhXfXeXL 4 3 r.9X9XsXfX9X` < L 9.7X8X;X_.U t i f B B Y Y z z Y d f f t c I <.-XjX . .5X9XrX4.& 3.eXqXhXeX& ;.9X9XsXgXcX",
"xXsXsX8.: L : ) 7X9X9XsX8.: ` 4 : ;.&X7XeX| P =X7.I K K W ! ! Q # K $.<.}.yXxXhXcX2.- e.e.` : L | &X0XeX4X: e.*X7X9XeXvX",
"lX7X3X3 : ` 1.= O.3X7X*X3 < : 2 P = 2 4.;.* =XsXxXjXdXdXdXdXdX5X,  .5X0X9XyXfXuXhX4.> < + = < < : 4 | q.1.& 8.&X*X*X9XvX",
"bX7X#.= X.eXvX8.= 8.*X` : ` r.eXsXe.: : & ` 3X9XyXfXgXfXdXfXqX[.1 > 5.2X6X9X9X9XqX3.1 2 o.e.{.e.3.L : > 4 > : L O.;.3XbX"
};
